<?xml version="1.0" encoding="utf-8"?>
<!-- Generator: Adobe Illustrator 26.0.2, SVG Export Plug-In . SVG Version: 6.00 Build 0)  -->
<svg version="1.1"
	 id="svg2" mapsvg:geoViewBox="116.927573 20.834769 126.606549 4.640292" xmlns:cc="http://creativecommons.org/ns#" xmlns:dc="http://purl.org/dc/elements/1.1/" xmlns:mapsvg="http://mapsvg.com" xmlns:rdf="http://www.w3.org/1999/02/22-rdf-syntax-ns#" xmlns:svg="http://www.w3.org/2000/svg"
	 xmlns="http://www.w3.org/2000/svg" xmlns:xlink="http://www.w3.org/1999/xlink" x="0px" y="0px" viewBox="0 0 702.4 1209.4"
	 style="enable-background:new 0 0 702.4 1209.4;" xml:space="preserve">
<style type="text/css">
	.st0{fill:#FF6C6C;stroke:#000000;stroke-width:0.25;stroke-miterlimit:10;}
	.st1{fill:#1F00FF;stroke:#000000;stroke-width:0.25;stroke-miterlimit:10;}
	.st2{fill:#FB5FFF;stroke:#000000;stroke-width:0.25;stroke-miterlimit:10;}
	.st3{fill:#C4AE97;stroke:#000000;stroke-width:0.25;stroke-miterlimit:10;}
	.st4{fill:#D8FF94;stroke:#000000;stroke-width:0.25;stroke-miterlimit:10;}
	.st5{fill:#FFFFBB;stroke:#000000;stroke-width:0.25;stroke-miterlimit:10;}
	.st6{fill:#FFB594;stroke:#000000;stroke-width:0.25;stroke-miterlimit:10;}
	.st7{fill:#FFDEA9;stroke:#000000;stroke-width:0.25;stroke-miterlimit:10;}
	.st8{fill:#F4BDFF;stroke:#000000;stroke-width:0.25;stroke-miterlimit:10;}
	.st9{fill:#83CAFF;stroke:#000000;stroke-width:0.25;stroke-miterlimit:10;}
	.st10{fill:#B6FFB8;stroke:#000000;stroke-width:0.25;stroke-miterlimit:10;}
	.st11{fill:#FF99E0;stroke:#000000;stroke-width:0.25;stroke-miterlimit:10;}
	.st12{fill:#FFCCCC;stroke:#000000;stroke-width:0.25;stroke-miterlimit:10;}
	.st13{fill:#FFE8B0;stroke:#000000;stroke-width:0.25;stroke-miterlimit:10;}
	.st14{fill:#FFFDC0;stroke:#000000;stroke-width:0.25;stroke-miterlimit:10;}
	.st15{fill:#E8F2AD;stroke:#000000;stroke-width:0.25;stroke-miterlimit:10;}
	.st16{fill:#EBCEF2;stroke:#000000;stroke-width:0.25;stroke-miterlimit:10;}
	.st17{fill:#C6ECFF;stroke:#000000;stroke-width:0.25;stroke-linejoin:round;stroke-miterlimit:3.8637;}
	.st18{fill:#FDFCEA;stroke:#000000;stroke-width:0.25;stroke-miterlimit:10;}
	.st19{fill-rule:evenodd;clip-rule:evenodd;fill:#FFFFBB;stroke:#000000;stroke-width:0.25;stroke-miterlimit:10;}
</style>
<path id="PH-TAW" class="st0" d="M180.9,1199.2l-1.4,7.1l-0.6-2.5l1-1.9l-1.4-1.2l2.4-3.2L180.9,1199.2z M210.4,1194.9l3,2l-3.8-0.2
	l-0.5-1.4L210.4,1194.9L210.4,1194.9z M183.5,1188.3l2.8,5.7l0.9,5.5l-1.8,6.7l-1.7,1.9l0.5-10.8l-1.5-8.1L183.5,1188.3
	L183.5,1188.3z M208.6,1187.5l3.6,1.9l0,2.6l-3.6,0.5l-1-4.3L208.6,1187.5z M224.3,1181.3l-0.9,3.5l-1.4,0.3l0.2-3.5L224.3,1181.3
	L224.3,1181.3z M206.8,1179.8l-0.4,1.4l-2.6-0.2l0.3-1.4L206.8,1179.8L206.8,1179.8z M231.8,1179.9l1.1,0.7l-0.2,1.2l-2.6-2
	L231.8,1179.9L231.8,1179.9z M239.2,1180.2l-0.7,0.7l-2.1-0.6l1.8-1.6l1.4,0.8L239.2,1180.2L239.2,1180.2z M209.2,1173.4l0.5,4.4
	l-1.1,0.5l-0.8-1l-0.4,1.7l-3.2,0.5l1.9-4.6L209.2,1173.4L209.2,1173.4z M245.4,1173l0.6,1.5l-1.2,0.8l-2.6-0.1L245.4,1173
	L245.4,1173z M248.1,1171.3l-0.6,2l-1.1-0.4l0.1-2.2l1.1-0.5L248.1,1171.3L248.1,1171.3z M245.5,1167.8l-2.6,1.5l-0.4-1l-1.6,0.4
	l1.7-5.3l2.8,2.4L245.5,1167.8L245.5,1167.8z M249.2,1163.3l-1.5,5.4l-0.7-2.9L249.2,1163.3z M238.2,1156.6l0.3,3.4l2.8,1.9
	l-1.7,3.1l0.6,3.7l-1.5,2.5l0.3,1.7l-4.2-1.5l2-2.8l-1.7-0.7l-0.9,2.2l-2.6-1.7l-1.8,2.6l-0.8-0.7l-0.9-0.5l-1.1,0.4l-0.2-1.3
	l-1.2-0.1l-3.2,1.9l0.3,1.7l-0.7,0.6l-2.2,3.3l-2.2-0.8l-3,1.7l-0.6,0.3l-1.5,0.9l-2.9-0.6l0.4-4l-1-1l1.4-1.8l2,0.2l6.1-3.1
	l2.8-3.5l3.6,0.4l2.9-2.8l0.6-0.7l6.9-4.6L238.2,1156.6L238.2,1156.6z M246,1153.9l1.3,0.3l-1.7,1.2l-1.7-0.5L246,1153.9z
	 M266.1,1152.8l-1.8-0.9l0.7-1.8l1.9,1.7L266.1,1152.8z M114.5,1032.7l1.5,1.5l-1.3,2.6l1.9,2.1l-7.6-1.8l0-1.3l-1.6-1l3.3-1.2
	l1.7,0.6C112.4,1034.2,114.5,1032.7,114.5,1032.7z"/>
<path id="PH-SLU" class="st0" d="M282.5,1144.4l1.3,2.5l-2,1.8l-0.5-1.7L282.5,1144.4L282.5,1144.4z M281.1,1147.4l-1.9-0.6l2.4-2.7
	L281.1,1147.4L281.1,1147.4z M280.7,1140.6l1.2,1l-0.8,2.5l-2.9,1.7l-0.9-2.3l1.4-2.5L280.7,1140.6L280.7,1140.6z M284.7,1139.3
	l4,3.4l-1.7,2.9l-1.8,0.8l-3-2.7l-0.2-1.4l0.7-2.1L284.7,1139.3L284.7,1139.3z M300.8,1132.3l-2.4,1.8l-2-1.8l4.1-0.9L300.8,1132.3
	L300.8,1132.3z M285.9,1130.9l1.6,0.7l-2,1.9l-4.6,0l0.9-2.6L285.9,1130.9z M295.8,1128.4l1,0.4l-0.5,1.2l-1.1-0.6L295.8,1128.4z
	 M289.6,1126.9l1,2.9l-3.1,1.6l-0.2-3.5L289.6,1126.9z M306.2,1120.2l3.2,1.1l1.1,2.4l-3.2,1.6l-1.6-0.6l-0.6-1.9L306.2,1120.2
	L306.2,1120.2z M218.5,1117.5l1.7,1.7l-3-0.7L218.5,1117.5z M220.8,1118.8l3.6-1.2l-0.9,1.3l-2.6,0.5L220.8,1118.8z M222.8,1113.7
	l-0.1,1.3l-0.1,0.9l-1.4-0.7l0.5-1.4L222.8,1113.7L222.8,1113.7z M338.1,1111l0.8,1.8l-1.9,1.5l-0.9-1.8l0.8-0.9l0.3-0.4L338.1,1111
	L338.1,1111z M231.9,1112.4l-1,0.2l-1.5-1.6l0.7-1.1l1.3,0.7L231.9,1112.4L231.9,1112.4z M335.9,1107.2l0,1l-2.5,1.3l1.5-3.1l1.2,0
	L335.9,1107.2L335.9,1107.2z M325.9,1105.3l1.2,1.4l-0.5,1.4l-2.9-0.1l-0.5-1.4l1.7-1.5L325.9,1105.3L325.9,1105.3z M344.6,1105.3
	l1.1,1.3l2.7,0.4l-4.4,3.1l-1.1-0.7l2.4-2.3l-1.2-0.8L344.6,1105.3L344.6,1105.3z M328.5,1103.7l0.5,1l-1.1,0.9l-0.3-1.6
	L328.5,1103.7L328.5,1103.7z M303.6,1102.6l3.1,1l3.8,6l5.3-1.7l2.7,1.3l3.4-0.3l0.5-0.1l1.7-0.3l1.8,1.1l0.5,2.6l-2.7,1.4l-0.2,2.7
	l-2.3-1l-4.9,4.5l-1.1-0.9l0.8-0.6l-3.2-1.2l0.7-2l-0.6-1.2l-3-1.2l-1,1.4l-0.8-0.6l-0.7,1.4l-1.8,0.1l0,0.9l-3.9,1.4l-0.7,1
	l-3.7-3.8l-6.1,2.9l-4.4-2.3l-0.4-2.5l3.4-5.2l5.7-2.1l1.5-2.4L303.6,1102.6L303.6,1102.6z M351.3,1102.4l3.5,3.8l3.3,1.5l6.3-2.4
	l-2.8,2.5l-4,1.5l-5.8-4l-1.5-1.8L351.3,1102.4L351.3,1102.4z M262,1098.6l1.4,1.3l-1,1.1l-1-1L262,1098.6L262,1098.6z
	 M356.5,1098.4l0.8,2l-2.4,0.1l-0.2-1L356.5,1098.4L356.5,1098.4z M256.2,1096.6l0.6,0.8l-1,2.2l-2.7-1.4L256.2,1096.6z
	 M354.9,1096.3l1,2l-1.9,1.4l-0.8-1.7L354.9,1096.3L354.9,1096.3z M293.1,1094.2l1.9,1l-0.4,1.2l-1.7,0.4L293.1,1094.2z
	 M270.5,1085.8l0.9,1.1l-0.3,2l-2.2,2.1l-0.9-1.2l1.2-1.7L270.5,1085.8z M285.6,1084.2l1,1.7l-2.4,0.8l0.3-2L285.6,1084.2
	L285.6,1084.2z M266.2,1080.4l-1.3,10.5l-3.3,0.9l-4-1.1l0.1-1.3l2.8,0.5l2.6-7.9L266.2,1080.4L266.2,1080.4z M274.6,1077.3l0,3
	l-3-0.6l-0.1-0.9L274.6,1077.3L274.6,1077.3z"/>
<path id="PH-BAS" class="st0" d="M367.4,1086.8l0.1,1.6l-0.7,0.2l-1.6-0.7l0.4-1.5L367.4,1086.8z M336.5,1057.9l-0.4,0.8l2.2,1.2
	l0.8,3.8l1.6,1.7l0.2-2.6l0.5-1.2l-3.2-2.3L336.5,1057.9z M369.4,1085.2l1.7,0.1l-0.9-1.6L369.4,1085.2L369.4,1085.2z M367.1,1084.5
	l-0.7-1.7l-1.9,0.8l0.6,1.1L367.1,1084.5L367.1,1084.5z M390.4,1062.2l-3,0.2l-2.2-1.7l-6.6-0.3l-0.5-3.4l-2.9,0.3l-2.5-2.8l-2,0.7
	l-1.2-0.3l-2,0.7l-4.9,4.7l-2.9,1.1l-3.8-1.7l-2.2,2.2l-0.7,3.2l2.2,1.7l1.9-0.4l2.1,2.1l-1.1,1.2l0.4,2.8l2.4,1.5l1.2,2.7l2.8,1.2
	l-0.1,1.7l6-0.4l10.4-3l1-1l-0.3-4l1.5-4.3l1.9-1.1l4.8,0.3l1.7-2.5L390.4,1062.2L390.4,1062.2z"/>
<path id="PH-LAS" class="st0" d="M549.3,953.1l2.7,3.3l1.8,7.9l3,5.8l1.9,1l-0.5,1.5l1,1.8l2.1,0.8l3.5,6l1.4,0.7l0.1,3.1l1.8,1.6
	l0,2l3.5,2.2l0.3,1.4l0,0l-7.7-2.7l-3.8,2l-2.9-0.7l-2.9-3.7l-2.2-0.6l-3,0.2l-4,2l0,0l0,0l0,0l-5.5,6.2l-8.4,4.3l-4,5l0.3,1.5l0,0
	l-1.4,0.5l-3.8-2.3l1.3-1.1l-2.1-3.8l-7.5-9.8l-2.1,0.3l-0.9-1.6l-4.2-2.1l-7.2-0.5l0,0l1.7-2l-0.1-1.3l11.9,3.7l1-2.1l-0.4-2.2
	l2.6-5.3l-1.6-5.4l6.4-0.4l1.9-4.4l-0.8-2.7l6.3-1l4.7-4.9l-0.2-3.6l1.6-5.6l2.4-0.3l1,1.2l8.7,2.6L549.3,953.1L549.3,953.1z"/>
<path id="PH-MGD" class="st0" d="M514.9,1014.6l-0.2-2.6l4.2-3.3l-2.5,3.2l0.3,1.4L514.9,1014.6z M578.5,1052.1l-4,1.1l-2.1-0.9
	l-0.5-16l-1.3,0l0-0.8l0.2-3.5l2,0.1l0.2-1.9l-2.1-0.1l0-1.8l-6.2-5.9l0.3,0.8l-1.6,0.5l0.1,2l2.6,1.3l1.1,1.8l-1.3-0.1l0.5,1.9
	l-1.4-1.4l-0.8,2.2l-0.2-1.1l-1,0.2l-0.5,1.4l1.5,0.8l1,2.4l-0.7,0.8l1,0.6l-2.4,1.9l0.3,1.4l-0.9,0.5l-3.7-2l-2.9,0.3l-3.9-5
	l-2.3,0.7l-5.3-4.3l5.8-10.6l-2.8-0.8l-4,1.2l-3,4.4l-3.2-0.5l5.7-9.6l1,0.5l4.7-10.8l-3.8-5.6l0.5-9.6l-5.5,6.2l-8.4,4.3l-4,5
	l0.3,1.5l0.6,1l2.6-0.4l0.4,2.6l0.9,0.3l-0.3,1.9l-3.1,0.2l0.4,3.3l-0.8,3.1l0.8,0.9l-2.1-0.4l-0.2,2.2l-1.2-0.3l-0.8,1.6l3.8,0.6
	l1.8,1.6l-0.7,0l0,0h0l-1.2-1.5l-3.1-0.1l-3.9,3.2l-3.6,0.4l-4.7,7.5l-3.2,9.6l1.4,3.2l-1.3,0.9l0.3,2l-1.4,0.7l1.3,0.4l-0.1,1.8
	l1.1-0.4l-0.4,1.8l2.9-1.8l2.2,3.2l4.3,0.1l12-0.3l1.2,2.2l16.6,0.1l5-5.3l-1.7-4.8l7.4-1.6l-0.2,0.9l2.9,0.2l-2.1,6.2l5.8,0.1
	l2.3,8l1.5,1.7l6.3-0.5l8.6-4.7L578.5,1052.1L578.5,1052.1z"/>
<path id="PH-MNL" class="st1" d="M289.5,468l0.8-0.8l1.3,1.6l0.9-0.5l-1.6-3.2l0.9-0.4l1.4,0.6l0.3,1.4l1.4-0.2l1-2.4l0,0l0.3-0.3
	l0,0l2.4-0.6l0.3-1.6l1.1-0.3l1,1.3l2.9,0.3l0,0l0,1.4l1.2,0.1l-2,4.7l2,1.3l-0.3,1.7l-1.9,0.6l0.6,2.7l-1.2,1.7l0.9,2.8l0,0
	l-3.2,2.7l-0.4,8.7l-3.1,2.1l0,0l0-2.3l-3.2-4.9l0.1-2.1l0,0l1.4-2l-1.1-0.5l0.8-0.6v-3.3l-3-2.6l0.4-1.4l0.8,0.9l0.2-2.8l-0.8,0.2
	L289.5,468L289.5,468z"/>
<path id="PH-NCO" class="st2" d="M545.3,988.6l4-1.9l3-0.2l2.2,0.6l2.9,3.7l3,0.7l3.8-2l7.7,2.7l0,0l1.3,4.5l-1.8,1.8l-0.8,2.7
	l2.1-1.1l1.6,1.2l0,2.1l2.8,1.3l0.1,1.2l3.5-1.2l3.2,2.3l5.5-0.4l1.3-3.4l6.4-1l0.8-4.2l2-3.6l1.7,0.1l0.2-1.6l2.3,0.9l0,0l0.2,1.1
	l0,0l0.8,4.5l-1.7,2.9l0.4,6.2l-1.5,2.5l1.4,6.8l-1.4,4.4l1.1,2.4l3.1,2.6l0.4,4.6l1.8,2.6l-2.7,0.3l-1.6,4.7l-6.5,5.5l-0.3,3.1
	l-1.2,1.3l-1.4-0.9l-1.8,1.1l1.5,4.6l0,0l-8.5,2.6l0,0l-7.7-4.6l-4,1.1l-2.1-0.9l-0.5-16l-1.3,0l0-0.8l0.2-3.5l2,0.1l0.2-1.9
	l-2.1-0.1l0-1.8l-6.2-5.9l0.3,0.8l-1.6,0.5l0.1,2l2.6,1.3l1.1,1.8l-1.3-0.1l0.5,1.9l-1.4-1.4l-0.8,2.2l-0.2-1.1l-1,0.2l-0.5,1.4
	l1.6,0.8l1,2.4l-0.7,0.8l1,0.6l-2.4,1.9l0.3,1.4l-0.9,0.5l-3.7-2l-2.8,0.3l-3.9-5l-2.3,0.7l-5.3-4.3l0,0l5.8-10.6l-2.8-0.8l-4,1.3
	l-3,4.4l-3.2-0.5l5.7-9.6l1,0.5l4.7-10.8l-3.8-5.6L545.3,988.6z"/>
<path id="PH-SAR" class="st2" d="M614.8,1150.3l2.2,1.1l-0.6,3.9l-1-0.8l-4.1,0.7l-0.2-1.4l-1.4-0.2l3-2.9L614.8,1150.3z
	 M620.6,1146l1.5,2l-0.5,3.4l-1.6,2.4l-1.5-3.4l1.6-1.5l-1.3-0.8l1.9-0.1l-1.1-0.9L620.6,1146L620.6,1146z M542.1,1093.7l10.8,4.7
	l2.8,3l5.8,1.9l9.5,5.1l16.2,0.6l2.6-4l0,7.1l3.7,0.4l0,0l-0.3,3l-1.6,1.5l0.9,1.5l-1,1.1l-10.9,0l-7.3-2.2l-13.2-6.9l-2.7-0.1
	l-1.8-2.2l-4.3-0.6l-6.7-4.7l-5.4-2.3l0,0L542.1,1093.7L542.1,1093.7z M598.4,1075l5.7,3l5.1-2.3l2.3-3.5l5.2,1.5l4.5,6.6l0.5,4
	l-2.4,2.7l3.4,5.2l0.4,7l2,2.3l-0.2,3.6l-3.9,10.9l0.5,4.2l-1.3,0.9l-0.1,2l-5.4,11.4l-6.3,4.7l1,1.4l0,0l-2-1l1.1-3.5l-1.6-4.5
	l-3.5-1.9l-1.5-3.6l-2.5-0.5l0.5-1l-1.2-1.1l0.5-2.7l1.9,0.9l1-2.6l-0.5-1.8l4.2-2.2l-0.5-1.3l1.9-3.1l-1.3-7.7l-2.3-1l0,0l-0.4-5.5
	l2.8-4.9l-0.1-2.4l-14.2-5.1l2.8-5.8h2l1.1-3L598.4,1075L598.4,1075z"/>
<path id="PH-SCO" class="st2" d="M542.1,1093.7l-5.7-2l-2.7-6.3l19.1-0.5l3.7,1.3l3.6-6.1l-0.3-3.3l-1.5-0.9l0.1-2.3l-0.9,0.1
	l-0.5-1.9l2.8-7.8l1-0.5l1.3,2.1l5.6-5.2l6.1,10.1l26.3-0.3l0,0l0.1,1.9l-2,3l0,0l-1.1,0.4l-1.1,3l-2,0l-2.8,5.8l14.2,5.1l0.1,2.4
	l-2.8,4.9l0.4,5.5l0,0l-5.5-0.6l-1.6,6.2l-2.9,4.8l0,0l-3.7-0.3l0-7.1l-2.6,4l-16.2-0.6l-9.5-5.1l-5.8-1.9l-2.8-3L542.1,1093.7z"/>
<path id="PH-SUK" class="st2" d="M520.6,1054.5l12-0.3l1.2,2.2l16.6,0.1l5-5.3l-1.7-4.8l7.4-1.6l-0.2,0.9l2.9,0.2l-2.1,6.2l5.8,0.1
	l2.3,8l1.5,1.7l6.2-0.5l8.6-4.7l0,0l8.5-2.6l0,0l2.3,1.7l-1.5,0.7l0.1,3.1l3.5,4.3l1.1,6.3l0,0l-26.3,0.3l-6.1-10.1l-5.6,5.2
	l-1.3-2.1l-1,0.5l-2.8,7.8l0.5,1.9l0.9-0.1l-0.1,2.3l1.5,0.9l0.3,3.3l-3.6,6.1l-3.7-1.3l-19.1,0.5l2.7,6.3l5.7,2l0,0l0,0l0,0
	l-3.2,6.9l0,0l-2,0.4l-10.2-7l-1.3-4.5l-4.4-3.4l-2-4.9l-0.9-0.7l-0.9,1.3l-1.5-3.4l0.5-1.4l0-0.7l-1.3-4l0.6-0.7l-0.9-0.4l0.3-1.1
	l1.3,0.6l1.5-1.1l-2-0.7l1.2-5.4l-2.7-6.6l1.9-2.4l0,0L520.6,1054.5z"/>
<path id="PH-COM" class="st3" d="M670.3,963.2l-1.1,2.1l7.2,23.9l3.1,14.6l0.4,12.8l-24.9,12.8l-0.7,1.5l0,0l-4.2-3.7l0.6-2.9
	l-4-6.4l1.3-6.9l-0.4-1l-1.3,0l0,0l0.8-3.3l-1.2-1.9l0.5-2.1l3.8-1.9l-2.4-3l4.9-1.1l1.4-7.6l-2.5-3.2l3-5l-1.8-4.9l-3.8,4.4
	l-4.8,8.2l-1.7-0.1l0.3-2.5l-1-2.6l-2.2-1l-0.8-2.4l-1.8-0.6l-2-15.8l0,0h22.2l1.2,2.6l3.5,2l1.7-1.7L670.3,963.2L670.3,963.2z"/>
<path id="PH-DAV" class="st3" d="M635.6,1039.1l1.5,0.2l1.1,1.6l-0.5,2.9l-1.9-0.7l-1.3-2.9L635.6,1039.1L635.6,1039.1z
	 M637.2,1021.8l1.9,2.1l2.1,0.4l2.6,3.3l-1.6,6.2l1.2,6.8l-2,3.4l-3.1-5.3l-0.8-7.6l-1.2-0.5l-1.2,1l-1.1-2.2L637.2,1021.8z
	 M634.9,963.3l2,15.8l1.8,0.6l0.8,2.4l2.2,1l1,2.6l-0.3,2.5l1.7,0.1l4.8-8.2l3.8-4.4l1.8,4.9l-3,5l2.5,3.2l-1.4,7.6l-4.9,1.1l2.4,3
	l-3.8,1.9l-0.5,2.1l1.2,1.9l-0.8,3.3l0,0l-1.5-0.2l-7,4.7l0,0l-3.2,0l-4,4.1l-7.6,0.4l-0.3-23.3l-18.3-0.5l0,0l-0.2-1.1l0,0l0.1-4.7
	l3.5-0.4l1.5,1.6l3.3-0.8l2.1,1.2l2.5-2.5l0.9-8l-1.8-3.8l0.2-6.9l-2.8-5.4l0,0L634.9,963.3L634.9,963.3z"/>
<path id="PH-DAC_00000047741373306059983810000007772338829406482323_" class="st3" d="M618.1,1067.1l0.3-1.3l-2-1.9l0.7-0.9
	l2.5,2.9l1.5-0.3l-0.2,2l2.7,1.2l-0.1,2.6l2.4-1.1l2.2,1.4l-1.3,0.7l0.6,0.7l1.6-0.3l-1,5.3l1.9,0.6l0.8,0.6l3.9,11l2.3,3.3l0.7,3.2
	l-0.7,3.5l0.8,1.4l-1,5.7l-2.9,7.6l-10.8,12.4l-1.1,3.4l-6.1,9.5l-5.9,1.3l-0.8-1.1l0,0l-1-1.4l6.3-4.7l5.4-11.4l0.1-2l1.3-0.9
	l-0.5-4.2l3.9-10.9l0.2-3.6l-2-2.3l-0.4-7l-3.4-5.2l2.4-2.7l-0.5-4l-4.5-6.6l-5.2-1.5L618.1,1067.1z"/>
<path id="PH-DAS_00000122687173904934271820000005594780033378396547_" class="st3" d="M611.4,1072.1l-2.3,3.5l-5.1,2.3l-5.7-3l0,0
	l2-3l-0.1-1.9l0,0l-1.1-6.3l-3.5-4.3l-0.1-3.1l1.5-0.7l-2.3-1.7l0,0l-1.5-4.6l1.8-1.1l1.4,0.9l1.2-1.3l0.3-3.1l6.5-5.5l1.6-4.7
	l2.7-0.3l-1.8-2.6l-0.4-4.6l-3.1-2.6l-1.1-2.4l1.4-4.4l-1.4-6.8l1.6-2.5l-0.4-6.2l1.7-2.9l-0.8-4.5l0,0l18.3,0.5l0.3,23.3l7.6-0.4
	l4-4.1l3.2,0l0,0l-2.5,2.2l0,1.3l-2.2,1.1l1.2,8.2l-1.1,2.2l-3.2,3.6l-1.8,0.5l-0.3,1.2l-1.3-1.6l-2.5,1.4l-2.7,3.4l0.2,4.4
	l-2.3,1.7l-0.3,1.9l-2.4,1.6l-2,3.3l0,0.7l-0.1,2.8l-1.3,2.1l0.9,6.6l-1.9,2.5l2,0.1l4,1.6L611.4,1072.1z"/>
<path id="PH-DAO" class="st3" d="M684,963.1l0.7,6.7l0,0l0,1.9l1.8,1.2l-0.8,1.1l0.7,1.6l3,0.1l-0.1,1.3l2,0.4l0.5,1.2l3.1,3.7
	l2.3-0.2l2.7,1.7l-1.4,1.6l0.7,1.7l-0.6,2.7l1.8,2.2l-1.1,0l-0.3,2.1l1.8,0.7l1.2,6.2l-0.3,2.5l-2.7,0.1l-0.5,0.9l0.2,2.4l1.9,0.5
	l-1.6,1.6l1,3.5l-1.4,1.1l1.1,1.8l2.8-0.1l-2.9,4l-0.3,2.3l-2-0.3l0.2,1.6l-1,1.1l0.6,1.6l-1.2,0.3l0,1.4l-2.1,0.5l-1.6,2.3l0.5,1.6
	l-1.6,0.6l-0.4,2.7l0.9,1.8l-3.2-0.7l-1.1,1l-2.4-0.1l-1.9-1l-1.7,2.1l-0.5,2.8l-2,0.8l0.6,1.7l4,3.4l0.3,4.1l-2.7-0.1l-1.8-1.4
	l-0.2-1.7l1.1-1.3l-1.7-1.6l-1-2l-1.5-1.7l-3.3-1.2l-1.4,3.8l1.3,1.1l-0.9,0.6l5.7,8.9l-3,8.7l0.9,6.1l-1.4,2.7l0,2.6l1,3.5
	l-1.1,0.3l-1.1,2.6l0.7,5l-1.1,3.8l-0.4-4.9l-1.5-2.5l-2.2-1.2l1-2.3l-2.9-3.4l-2-4.8l0.7-4.9l-1.8-4.2l1.8-2l-0.7-1.1l1-2.8
	l-1.6-1.8l0.3-6l-4.1-2.3l-3.4-3.9l1-6.1l-2.9-2.5l0.6-1.1l-1.2-0.9l0,0l0.7-1.5l24.9-12.8l-0.4-12.8l-3.1-14.6l-7.2-23.9l1.1-2.1
	l0,0L684,963.1z"/>
<path id="PH-BUK" class="st4" d="M554.3,945.9l1.2-2.2l-0.3-2.4l0.9,0.4l1-1.1l-0.4-2.7l1.2-1.8l0.2-4.2l14.4,0.2l-0.2-3.8l3.9-8.8
	l11.7,1.1l15.6-0.2l0,0l1.2,15.5l1.2,2.5l3.8,2.7l1,3.6l1.4,1l-0.8,3.1l1.4,3.1l-0.3,3.9l1.4,1.6l-0.9,3.8l0.5,2.9l0,0l2.8,5.4
	l-0.2,6.9l1.8,3.8l-0.9,8l-2.5,2.5l-2.1-1.2l-3.3,0.8l-1.5-1.6l-3.5,0.4l-0.1,4.7l0,0l-2.3-0.9l-0.2,1.6l-1.7-0.1l-2,3.6l-0.8,4.2
	l-6.4,1l-1.3,3.4l-5.5,0.4l-3.2-2.3l-3.5,1.2l-0.1-1.2l-2.8-1.3l0-2.1l-1.6-1.2l-2.1,1.1l0.8-2.7l1.8-1.8l-1.3-4.5l0,0l-0.3-1.4
	l-3.5-2.2l0-2l-1.8-1.6l-0.1-3.1l-1.4-0.7l-3.5-6l-2.1-0.8l-1-1.8l0.5-1.5l-1.9-1.1l-3-5.8l-1.8-7.9l-2.7-3.3l0,0l4.7-1.5l1.1-2
	l-1-1.7L554.3,945.9z"/>
<path id="PH-CAM" class="st4" d="M564.8,871l5,3.9l1.4,4.2l-0.5,1.1l1.1,0.8l-2.2,3l-2.4-1.7l-4.8-1.2l-3-3.7l0.6-4.6L564.8,871z"/>
<path id="PH-LAN" class="st4" d="M531.1,939.2l5.6-1l10.9,0.7l4.5,2.9l2.3,4.2l0,0l-0.3,1.9l1,1.7l-1.1,2l-4.7,1.5l0,0l-2.1-1.6
	l-8.7-2.6l-1-1.2l-2.4,0.3l-1.6,5.6l0.2,3.6l-4.7,4.9l-6.3,1l0.8,2.7l-2,4.4l-6.4,0.4l1.6,5.4l-2.6,5.3l0.4,2.2l-1,2.1l-11.9-3.7
	l0.1,1.3l-1.7,2l0,0l-3-0.3l-0.8-2.1l-2,0l0.2-2.4l-1.3-1.9l-2.1-0.5l0-1.1l-5.1-1.2l0,0l3.5-9.1l0,0l1.8-2l3.8-1.4l2.8-4.3l3.4-2.1
	l1-1.9l1.5,0.6l2.2-0.8l2.4-2.8l6.2-3.3l10,0.9l4.8-1.9l3.1-4.9L531.1,939.2z"/>
<path id="PH-MSC" class="st4" d="M485.1,914.1l0.8,0.6l-0.5,0.8l1.7,0.6l3.5,0l4.1,4.5l2.9,3.3l-0.2,2.2l2.7,2.1l-0.1,1.6l1.6,2
	l0.6,5.8l1.2,1.7l-1.1,0.9l-0.1,2.2l1.3,9.1l-5.6,4.2l-2,3.7l-3.5-0.3l-5.5,3l0,0l-0.1-1.3l-2.4,0.5l-2.8-1.5l-1-12.5l0,0l0.4-29.7
	l0,0l0.8,0.4l0.9-1.2l0.6,0.4l1.2-1.8l-1.7-0.5L485.1,914.1L485.1,914.1z"/>
<path id="PH-MSR" class="st4" d="M600.8,883.1l2.2,9.9l-1.2,2.5l2.6,3.6l-1.8,1.4l0.8,14.3l0,0l0.1,5.7l0,0l-15.6,0.2l-11.7-1.1
	l-3.9,8.8l0.2,3.8l-14.4-0.2l-0.2,4.2l-1.2,1.8l0.4,2.7l-1,1.1l-0.9-0.4l0.3,2.4l-1.2,2.2l0,0l-2.3-4.2l-4.5-2.9l-10.9-0.7l-5.6,1
	l0,0l1.2-3.7l1.5-1.3l0.1-4.9l2.3-5.9l9.7-6l2.1,0.2l-0.5,2.2l3,1.2l2.3,2.4l1.9,0.2l0.6,1.4l5.5,0.7l-0.9,1.5l1.5-1.3l0.4,1.7
	l2.5,0.8l2.8-1.5l0.9-1.5l-0.8-3.3l2.1-2.7l-0.7-3.5l-1.5-0.7l-0.1-3.1l1.3-1.8l1.4,0l-1-3.6l1.8-4.2l-0.8-11.1l2.8-2.1l3.7-0.3
	l11.3,6.6l3.9,6.6l6.2-1.3l1.8-6l-1.2-6.1l1-1.3l0.2-3.7L600.8,883.1L600.8,883.1z"/>
<path id="PH-ZAN" class="st5" d="M469.2,909.9l3.2,0.8l1.1,2.4l3.6-1.3l0.5,1.4L476,915l0.2,1.1l1.8,1.5l1.6-0.8l0.1,0.9l1.4-0.1
	l0,0l-0.4,29.7l0,0l-12.1,0l-2.5-1.2l-10.7-0.6l-0.5,9.8l-1.9,4v4.1l-6.5-0.2l-8.4,6.2l-3.4-0.3l0,0l-11.8-1.8l-6.6,1l-8.1,3.8
	l-7.3,6.1l-6.8,3.3l-5.9,8.8l-3.4,7.2l-0.8,5l0,0l-3.6,7l-0.2,6.6l-1.5,4l-5.4,5.1l-12.4,0.3l0,0l5.2-7.5l2.4-1l0.4-1.3l3.7-1.1
	l0.1-1.4l-2-1l-0.5-2.3l2-3.1l-0.1-3.4l2.6-3.6l-1.2-2l2.1-0.1l3-3.6l-0.6-1.1l-0.9,0.6l-1.3-1.1l2.1-3.2l0-2l-1.3-4l-2.3-1l1.3-1.9
	l0.6,1l0.9-0.6l-0.3-1.5l0.1-1.8l1.5-0.4l1.4-3.8l4.8-3.6l0-3.8l8.6-5.7l8.5-2.5l3.5,0.5l5.3-1.3l3.3-2.2l2.4-3.6l1.8,3l2.5,0.7
	l6.8-0.7l3.4-1.9l3.9,0l6-4.9l-0.1-2.6l-2-0.8l-2.2-3.4l3.4-1.5l-0.2-6.3l2.1-1.1l1.6-4.5l2.4-1.8l8.6-1.3l6.3,1.5l2.2-0.5l2.2-3.2
	l1.4-5.3l1.5-0.6l1.6,1.4l1.6-0.6l0.4-2.2l-1.6-0.9l-0.3-0.6l-1.1-1.5l0-1.6L469.2,909.9L469.2,909.9z"/>
<path id="PH-ZSI" class="st5" d="M387.8,1036.3l0.6,0.7l-0.5,2.3l-3.1-0.5l0.5,1.1l-2.7,2.3l1.1-2.8l-0.6-0.7l1.2-1.5l1.4,0.6
	L387.8,1036.3L387.8,1036.3z M436.2,1007l0.7-0.5l-1.2-1.4l-2.2-1.1l-0.9,1l0.3,3.5l-0.9,0.7l-3-4.8l-2.5,0.9l-1.1,5.6l1.6,0.6
	l-0.3,3l1.9,1.4l1.2-2.3l3.8-0.9l1.4-2.1l2.2,0.7l-1.8-2.4l3.7,0.6L436.2,1007L436.2,1007z M446.9,977l-12.3-1.6v-6.3l-11.8-1.8
	l-6.6,1l-8.1,3.8l-7.3,6.1l-6.8,3.3l-5.9,8.8l-3.4,7.2l-0.8,5l-3.6,7l-0.2,6.6l-1.5,4l-5.4,5.1l-12.4,0.3l-0.3,5l2.9,8.2l12.4,5.6
	l3.1-1.4l0.4-1.2l2.1-2.2l2-6.1l0.1-0.9l-0.6-1.5l3.8-3.1l-0.1-1.3l-1.1-0.1l1.4-2.1l-1-2.2l1.3-0.4l-0.2-0.7l0.3-1.7l1-0.3l0.8-6.6
	l2-1.1l0.8,0.5l-0.2,1.6l1.1-0.5l3.8-5.6l-3.5-0.5l0.9-4.8l-0.1-0.1l3.4-1.8l1.4-1l1.9-2.2l1.4-0.3l1.3,0l0.2-1.8l1.4-1.3l-4,0.9
	l-1.3-0.3l-0.2-1.1l4.3-3.2l-0.5-1.5l2-2.8l1.2-0.2l1.3-3.1l5.5-1.8l0.3-1.3l1.1,0.4l1.3-1.3l1,1.7l1.5-1.6l1.9,0.3l1.9,2.5l1.6-0.9
	l3.2,1.3l0.5,2.3l-1.5-0.9l-0.2,1.5l-1.1,2.2l1,2.7l-0.7,1.7l0.2,1.7l1.7,0.9l0.8,2.9l-0.8,1.3l-1-1.7l-0.7,0.5l-0.7,3.8l0.1,1.2
	l1.4-1.4l1.3,0.8l-0.3,3.3l1.3-0.9l0.7,0.8l2.4-2.1l0-1.6l-1.4-0.6l2.1-1l0.3-2.3l1-0.3l1.2,0.5l2.2,4.2l1.6-0.6l1.4,2.2l0.9-1.6
	l-0.5-1.5l2.8-5.7l-0.6-3.5l2.3,0l-0.3-1.9l0.5-0.6l0.1-1.4l1.6,0.2l1-2.1L446.9,977L446.9,977z"/>
<path id="PH-ZAS" class="st5" d="M434.6,969.1l3.4,0.3l8.4-6.2l6.5,0.2v-4.1l1.9-4l0.5-9.8l10.7,0.6l2.5,1.2l12.1,0l0,0l1,12.5
	l2.8,1.5l2.4-0.5l0.1,1.3l0,0l0.3,0.7l0.2,0.8l0.1,1.2l1.8,1.6l0,0l-3.5,9.1l0,0l-4.1-1.7l-7.6,2.9l-2.7-0.3l0.5,2.5l-0.7,0.9
	l1.8,0.4l-0.2,1.2l2.8,1.4l-0.3,4.4l-1.1,2.9l-5.7,1.7l0.3,3.7l-2.4-1.7l-1.4,1.9l3.2,1.4l-0.1,3.2l1.1,2.4l1.2-0.6l2.8,2.4l-1,1.8
	l1.1,2.7l-2.2,0.1l-0.5,1l-2.5-1.2l-0.5-1.7l-3.2-1.2l-0.7-1.9l-2.7-1.9l1.2-4.6l-5.6-0.6l-3.1,2.5l1.2,1.4l-1.6,1.4l-1.1-1.2l0.6-1
	l-3.9-1.4l-0.9-3.3l1.9-0.4l0.1-1l-2.4-1.6l1.8-0.2l1.1,2l2.8,0.1l1.5-1.2l-1.4-3.6l-2.7-0.2l0.3-0.9l-1.2-0.6l1.3-1.9l-0.5-1.8
	l-1.7-1.6l-1.3,2.1l0,0l-0.9-7.7l-12.3-1.6L434.6,969.1L434.6,969.1z"/>
<path id="PH-SUR" class="st6" d="M652.5,855l2.3,1.6l0.7,0.3l-0.9,0.8l-1.7-0.4l-1.9,1.1l-0.1,1.1l1.7,1.7l1-0.4l1.2,2.3l2-1
	l-0.3-1.2l1.1-0.7l0,1.7l-1.3,0.9l1.2,2.2l2.5,5.1l-1,0.1l3.1,2.4l5.1-1.6l3.6-3.8l2.8,0.1l-1.2,1.4l0.5,1.3l-1.7,5l0.4,3.1
	l-1.5,4.2l2.3,2.1l0.5-1.1l2.9,5.1l2.8,2.9l1,0.3l1.3,1.5l0.2,1.6l-1.4,0.7l2.5,0.6l-1.3,2.8l2,3l-1.5,0.3l0.9,0.9l-2,1.4l0.2,1.6
	l-3.6,0.8l-1.2,0.8l-0.1,1.6l-1.8,0.6l0,1.5l2.4,1.2l-4.2-0.2l-6,3.5l-1.6,2.9l3.1,2.1l-0.8,1.2l2.2,2.6l1.5-0.1l-0.3-0.8l4.3,1.3
	l0.4-0.7l-2.8-1.3l1.6-0.6l3.9,0.6l2,1.5l1.8-0.7l1.7,0.6l1.2-1.4l0.7,0.8l-0.8,1.3l2.9,0.2l0.4,1.7l-1,0.7l1,1.1l-2.5-0.3l-1.1,3.2
	l1.8-0.2l0.5,1.6l-1.7,3l-2.7,0.9l1.3,1.6l-0.8,0.3l0.2,1.2l3.3,0.3l1,1.3l-5.4,4.7l2.1,3.2l3.4-1.4l3.6-3.2l1.2,0.2l-2,9.6l1.7,1.1
	l-2.7,3.2l0.5,3l-1.2,0.3l0.7,1.8l2.5-0.3l-3.1,2.5h-1.4l-1.9,3.2l0,0l-0.7-6.7l0,0l-0.4-3.7l-3.3-1l4.3-4.3l-4.8,0.5l-4.4-4.2
	l-1.9-0.3l1-3.8l3.7-4.2l1.4,0l0-1.7l-1.7-2.1l0.9-4.7l-1.5,2.1l-5.8,0.4l-5.9-0.7l-2.8-2.7l3.5-3.9l-4.8,0.5l-1.2-7.6l-1.8-0.1
	l-0.2-1.1l-0.4-4.7l1.7-1.2l-0.3-0.8l-3.1-4.7l-1.6-5.7l-3.6-4.1l-1.5-14.3l-3.2-5.5l-5.8-6.7l0,0l-0.5-6.6l0,0l12.3-12.5l0,0
	L652.5,855L652.5,855z"/>
<path id="PH-AGN" class="st6" d="M618.8,857.6l2.7-1.2l5.2-0.2l9.1,1.7l3.9,3.3l0.5,4.9l0,0l0.5,6.6l0,0l0.9,5.2l-1.5,6.7l-3.7,6.4
	l-1.9,5.6l0.1,3.2l-2.3,4.1l2.5,8.1l-12.9-0.2l-4.3,3l-14.2,0.1l0,0l-0.8-14.4l1.7-1.4l-2.6-3.6l1.2-2.5l-2.2-9.9l0,0l1,0.4l1.3,4.1
	l3,2.8l3.8,0.1l0,1.6l0.6-1.5l6.3,1.1l6.7-3l-0.6-0.9l1.7-3.2l-1.2-5.1l0.8-3.8l-1.8-3.7l0-3.7l-3.2-6.5L618.8,857.6z"/>
<path id="PH-AGS" class="st6" d="M640.7,872.6l5.8,6.7l3.2,5.5l1.5,14.3l3.6,4.1l1.6,5.7l3.1,4.7l0.3,0.8l-1.7,1.2l0.4,4.7l0.2,1.1
	l1.8,0.1l1.2,7.6l4.8-0.5l-3.5,3.9l2.8,2.7l5.9,0.7l5.8-0.4l1.5-2.1l-0.9,4.7l1.7,2.1l0,1.7l-1.4,0l-3.7,4.2l-1,3.8l1.9,0.3l4.4,4.2
	l4.8-0.5l-4.3,4.3l3.3,1l0.4,3.7l0,0l-13.7,0.1l0,0l-6.8,3l-1.7,1.8l-3.5-2l-1.2-2.6h-22.2l0,0l-21.3,0.9l0,0l-0.5-2.9l0.9-3.8
	l-1.4-1.6l0.3-3.9l-1.4-3.1l0.8-3.1l-1.4-1l-1-3.6l-3.8-2.7l-1.2-2.5l-1.2-15.5l0,0l-0.1-5.7l0,0l14.2-0.1l4.3-3l12.9,0.2l-2.5-8.1
	l2.3-4.1l-0.1-3.2l1.9-5.6l3.7-6.4l1.5-6.7L640.7,872.6z"/>
<path id="PH-DIN" class="st6" d="M620.1,782.3l2.2,1.3l-0.3,1.7l-1.5-0.3l-1-2.2L620.1,782.3L620.1,782.3z M632.5,781.6l2.8,5.9
	l-2.5,6.4l0.4,4.1l-2.3-1.3l0.3,1.7l1.6,0.4l1.1,3.2l-1,0.9l0.4,1.5l1.6-0.2l-1.3,1.4l0.2,2.1l2.7,4.6l-1.9,4.8l0.5,2.3l-1.6,1
	l3.7,4.2l-0.5,1.9l-1.7-0.1l-0.8,1.1l-1.8-2.2l-0.1-4.1l-3.6-1.2l1.8-0.4l-1.8-1.2l-1,0l-1.3-1.1l1.5-0.6l-0.5-2.2l0.1-1.1l1.1-0.6
	l-0.1-1.9l-1.3-0.8l0.3,1.7l-2.1-1.4l-2.8,1.6l-2.7-5.3l1-0.7l0.8-3l1.9,0l0-0.6l1.2-0.9l-2.2-2.9l0.6-2.5l-0.2-0.7l-0.3-2.7
	l3.2,0.1l-0.6-4.5l2.3,1.7l1.1-0.5l1.2-5.6L632.5,781.6L632.5,781.6z"/>
<path id="PH-SUN" class="st6" d="M631.5,836.4l2.6,0.4l-1,0.9l0.6,3.4l-1.1-0.4l-0.5-3.1l-1.4,0.5L631.5,836.4L631.5,836.4z
	 M660.7,836l3,0.3l0,1.4l-2.6-0.3l-1.8,2.2l0-1.5l-2.6,1l-0.5-1.8l1.1-0.5l-0.1-1.2l1.9,2.1L660.7,836L660.7,836z M654.3,834.1
	l-0.2,1.8h1.5l0.1-0.9l0.7,1.3l-0.8,0.5l0.2,2.5l1.7,0.3l0.4,1.6l-1.7,2.9l-0.3,4.1l-1.7,0.6l0-1.1l-2.5-1.7l-1.1-1.1l1.3-0.8
	l0.3-0.2l-0.2-2l1.4-0.1l-0.8-3l0.7-0.6l-1.4-1.3l1.1-0.5l-0.5-2L654.3,834.1L654.3,834.1z M632.5,831.7l1.8,2.8l-2.5-1.1l-0.6,0
	L632.5,831.7L632.5,831.7z M638,831.6l1.7,0.8l-1,2.1l-1.8-0.9l-0.4-2l1.3-0.3L638,831.6L638,831.6z M621.9,831.5l0.7,2.1l2.9-0.3
	l0.9,1.3l1.3-0.5l-0.7,1.3l1.7,1.6l-0.3,1.3l1.5,1.9l-0.7,1.1l0.7,1.6l0.2,0.7l3.3,2.3l2.4-0.3l1.8,1.3l2-0.5l0.1,1.9l7.6,1.8
	l2.1,1.6v1.5l3.1,0.3l0,0L640.2,866l0,0l-0.5-4.9l-3.9-3.3l-9.1-1.7l-5.2,0.2l-2.7,1.2l0,0l-4.5-15.9l0.7-8.2l2.8-1.9l-0.2-2.3
	l1.6,1l-0.6,1.5l1.5-0.2L621.9,831.5L621.9,831.5z M632.5,822.6l0.1,4l1.1,0.9l2.2-0.1l-7.1,3.4l0.4-2l-1.2,0.8l-0.1-1.4l3.1-5.1
	L632.5,822.6z M623.3,822.9l2.7,3.6l-3.2-1.8L623.3,822.9L623.3,822.9z M656.3,819.2l0.8,1.3l-0.7,1.9l-1.8,2l-1.3,0.5l-0.7,0.8
	l-0.9-0.4l-0.2-0.9l0.5,0.5l3.3-3.3l-0.5-0.5l1.6-0.3L656.3,819.2z M663,811.7l4.3,13.7l-0.7,1l-1,0.5l0.1,0.3l1.7,1.3l1.3-0.6
	l0.5,2.8l1.5,0l-0.4,1.6l-3.6,2.8l-4.6-0.5l-1.9-1.2l-3.9-3l-1.7-1.7l0.8-1.5l2.5-0.1l-2.5-1.8l1.2-1.7l0.5-1.7l2.8-3.7l1.1-2.2
	l-0.5-1.7L663,811.7z"/>
<path id="PH-BIL" class="st7" d="M544.2,690.4l2.9,0.1l5.1,2.2l3.3,7.9l2.5,1.9l-0.8,4.1l-2,1.2l-4.8,0.3l-0.6-0.8l-1.7,1.2
	l-2.7-1.8l-1.5-3.9l-1.2,0.3l-1.1-1.7l0.3-2.6l-2.8-3.6l0.3-1l-1.1-0.9l2.1-1.7L544.2,690.4z M536.7,682.5l2,0.8l-0.2,2.2l-1.7,1
	l-2.4-2.1L536.7,682.5L536.7,682.5z"/>
<path id="PH-EAS" class="st7" d="M655.4,759.2l0.7,2.2l-2.3-2L655.4,759.2L655.4,759.2z M636.3,755.6l2.4,1.9l-1.2,2.5l0.5,1.3
	l6.8,1.2l0.6,1l-0.8,1.6l-4.2,0.5l-2-2.2l-1.9-0.4l0.2-0.9l-2.3-0.7l-0.8-3L636.3,755.6L636.3,755.6z M632.7,742.2l0.5,1.9l-0.9,0.5
	l-1.6-1l0.1-1.2L632.7,742.2z M641.6,740.2l5.2,6.9l-1,0.1l-4.4-5.5L641.6,740.2z M597,647.4l1.1-4.1l2-2.2l7.1,8.1l2.1-1.3l0,0
	l-0.3,0.6l1.4,0.2l1.3-2.7l1.8,0.3l-1.8,1.7l0.7,0.6l1.2,0.4l1-1.2l0.5,0.9l0.5-1.2l1.9,0.9l1.9,2.2l-0.6,1.2l1.6-0.3l0.1,1.4
	l1.1,0.7l0-1.1l1.5,1.9L623,656l-0.9-0.9l-0.1,1l-3,0.4l1.4,1l-0.5,1.1l-1.6,0.1l0,2.4l2.6-0.2l0.6,0.8L620,662l2.1,2.2l1.3,0
	l-4.4,5l-2.1,2.7l-0.4,4.6l1.7,1.8l-0.5,3.4l1.9,0.5l0.8,1.9l-0.9,1.5l-1.6-0.7l-2,1.7l1.4,0l-0.4,0.7l1,0.7l1.6-1.4l1.5,4.7
	l-0.8,0.7l1.5,0.9l-0.8,0.8l-2.1-0.5l-0.4,1l1.2,0.9l-1.8,2.2l0.7,1.7l1.8-0.1l-0.3,3.4l3.3,3.8l0.2,1.5l-1.8,1.9l2.1-0.5l1.6,1.2
	l0.6,2.4l0.8,0.9l1.5-0.4l1.4,2.5l2.2,0.7l-1.4,4.1l-4.9,3.1l-1,4.5l4.6,1.5l-0.7-0.7l1.9,0l0.3-0.8l-2.3-1.9l0.9-0.6l4.8,2.6
	l7.1,12.2l-0.8,1.4l-2.5-1.1l-1.2-2.8l-2.2-1.3l2.2-2.3l-2.6-0.2l-0.4-1.8l-5.6,2.1l-0.5-0.3l-1.2-0.7l0.9-1.6l-2.9-0.1l-1.3,5
	l-1.5-1.4l-1-0.5l-1-1.4l-0.9,0.6l0.4,1.4l-1.4-0.9l-0.2,1.4l-1.8,0.7l-0.2-1.4l-2.3,0.1l-1-1.5l-3.1,0.2l-1.4-2l-2.3,0.5l-0.9,1.4
	l0,0l-0.3-14.7l4.2-6l-1.5-2l-4-1.4l-1.8-11.4l1-2.6l4.4-3.2l-0.9-13.1L601,669l-6.7,0l-0.2-12.7l2.4-1.6L597,647.4L597,647.4z"/>
<path id="PH-LEY" class="st7" d="M536.2,701l8.9,9l2.3,3.9l0.8-1.3l-1.3-2.9l1.2-0.7l4.2,2.2l1.1,6.3l2.4,2.6l1.7-0.5l3,1.4l4.4-1
	l6.6-5l1-4.2l3.4,0.5l1.2,1.2l1.8-1l0.8,1l2-1.4l1,2.5l1.7-0.4l-0.8,1.5l0.8,0.7l-1.2,1.3l0,5.3l1.1,2l2.2,0.1l-0.2,2.3l1,0.8
	l-0.9,3.9l2.3,6.6l-0.4,9.8l-2.3,6.7l1.7,7.8l1.1,1.5l5.4,1.6l-0.8,1.6l3.2,3.8l0,0l-7,7.3l-8.2,0l-3.4,8.8l0.5,10.3l-3.8,0.8
	l-5.2,5l-1.2-0.5l0,0l2.2-9.3l-1.8-2.9l-2.4-1.4l-0.9-8l3.3-3.9l0.3-6.2l2.4-2.8l-1.5-8.6l-5.5-7.7l-1.7-4.3l-2.2-1l-4.2-4.6
	l-1.8,0.3l-2.4,2.4l0.9,3.5l-2.5,4.6l-2.8,0.1l-2-2.3l-1.2,0.6l0.4-2.2l-1.3-2.2l-0.3,2.6l-2.9-0.8l2.5-4.4l-0.3-3.7l-2.6-2.3
	l2.3-3.4l-1.3-6.8l0.1-1.7l0.2-1.2l-0.8-2.3l-0.7-1.1l0.3-1.2l-2.1-0.7l0-3.5l1.4-0.3l-2.2-0.9l-0.4-1.3l1.7-0.8l-2.3-0.6l-2-5.8
	l0-3.3L536.2,701z"/>
<path id="PH-NSA" class="st7" d="M520.5,647.1l1,1.1l-1.1,1.4l-1-1.8L520.5,647.1z M533.4,641.8l-2-3.1l-0.3-4.1l2.5,3.4
	L533.4,641.8L533.4,641.8z M523.7,633.1l3.6,5l-0.8,2.3l-3.1-3.8L523.7,633.1z M544.3,625.6l0.3,1.3l1.7,0.6l-1,0.9l-2.1-1
	L544.3,625.6L544.3,625.6z M549,625.5l2.1,2.9l-1.5,0.2l-2.1-2.9L549,625.5L549,625.5z M539.6,624.9l1.6,0.4l-0.2,1.3l-1.5,0.3
	L539,625L539.6,624.9L539.6,624.9z M539.3,622l2.5,1.9l0.2,1.8l-2.4-1.1l0.5-1.3L539.3,622z M585.2,620.9l1.5,1.3l0.4,2.2l3.8,1.6
	l-1,1.4l-0.6,1l1.9,0.5l-0.1-3.2l1.7-0.3l1.1,1.4l2.4-1.6l8.8,6.9l-0.5,1.4l2.3,0.3l0.3,3l3.1,1.7l-2.8,0.6l1.2,0.8l-1.3,0.2
	l0.5,1.5l-1.4,0.6l0.3,1.9l2.2,0.2l-2.5,1.6l0.5,1.2l3.3-1.9l-0.7,1.2l0.8,1.1l-1.3,0.3l0,0l-2.1,1.3l-7.1-8.1l-2,2.2l-1.1,4.1l0,0
	l-3.5,0.4l-9.5,3.9l-4.9-1.8l-3.6,8.5l-1.9-2.7l0.9-3.2l-9.3-5.3l-5.3,3.6l-11.5-6.9l-4,3.8l-5.2,0.1l0,0l-1.7-4.8l0.8-2.9l-0.6-0.4
	l-0.5,1.2l-1.4-4.7l-0.1-0.3L534,634l-0.2-3.8l-1.5-2.3l1.4-2.5l3.2,2.1l0.3,1.5l0.8-0.8l1.1,0.6l-0.1-1.3l2.7,1.3l0-2.1l2.1,1.6
	l0,1.1l1.6-0.3l1.7-0.9l-0.9,1.3l0.5,1.2l1-0.1l-0.1-1.8l2.7,1.3l3.4,0l0.6-0.8l6.9,0.9l5.3,0.3l4.6-2.1l3,1.3l2-0.5l1.1-2.4
	l-1.8-1.4l2.1,0.5l0.3,0.4l2.9,0.3l1.8-1.3l0.5,1.5l-0.9,0.5l2.8,0.4l1.7-1L585.2,620.9L585.2,620.9z M590.6,618l1.7,6l-4-1.4
	l1.4-0.1l0.5-1.2l-2.2-0.9l0.1-1.5l0.6-0.9L590.6,618L590.6,618z M539.5,617.1l2,0.8l0.3,3.3l-2-1.2L539.5,617.1L539.5,617.1z"/>
<path id="PH-WSA" class="st7" d="M573.7,691.3l2,0.1l0.7,1.3l1.5-0.4l0.3,1.1l-1.7,1.2l0.7,1.9l-3.3-0.6l0.3-2.8l-1.4-1.1l0.1-1.8
	L573.7,691.3L573.7,691.3z M566.5,688.9l0.5,1.8l1.3,0.5l-0.1,1.3l2-1l-1,1.6l2.9,1.8l-1.4,1.9l0.6,1.4l0.8-0.7l3.2,0.7l-1.4,1.6
	l0.6,2.4l-1.2,1.3l-2.3-1.4l1-1.3l-2.9-0.6l-0.3-2.5l1.5,0.9l0.5-0.8l-2.9-3.2l-0.9,0.7l-0.4-2.6l-0.8,0.5l0.3-2l-0.6-0.8l1-0.7
	l-1-0.9L566.5,688.9L566.5,688.9z M567.9,687.9l2,1l-1,2l-1.3-1L567.9,687.9L567.9,687.9z M559.9,674.6l0.1,0.9l1.5-0.1l-0.5,1.5
	l-1.7-1.4L559.9,674.6L559.9,674.6z M545.9,674l1.2,2.9l-1.2,0.7l-2.4-0.9l0.4-2.2L545.9,674z M537.4,671.6l0.5,1.6l-2,2.7l-2.3,0.3
	l0.1-2.3L537.4,671.6z M544,669.4l1,0.9l-0.7,1.6l-1.7-0.8l0-1.4L544,669.4L544,669.4z M529.6,662.6l1,0l0,1.8l-1.6-0.7l-2.8,2.7
	l-2.2-1.1l1.7-2.3L529.6,662.6L529.6,662.6z M539.2,647.7l5.2-0.1l4-3.8l11.5,6.9l5.3-3.6l9.3,5.3l-0.9,3.2l1.9,2.7l3.6-8.5l4.9,1.8
	l9.5-3.9l3.5-0.4l0,0l-0.5,7.4l-2.4,1.6l0.2,12.7l6.7,0l4.5,10.5l0.9,13.1l-4.4,3.2l-1,2.6l1.8,11.4l4,1.4l1.5,2l-4.2,6l0.3,14.7
	l0,0l-1.3,2.4l-1.9-0.9l-1-6.2l-3.2-6.9l-5.8-0.8l-4.7,1.4l-2-1.2l-0.4-2.9l1.7-2.3l-0.9-5.1l-1.5-0.8l-0.3-1.6l-1.3,0.3l-2.8-1.6
	l0.2-1.4l0-0.6l-1.3-0.8l0.1,3.4l-0.8-0.8l-2.8,0.6l-1.4-1.9l0.8-0.5l0-0.9l1.9-3.3l1,1.6l1.6-0.4l0.4-1l-1.6-0.4l0.3-1.4l4.8,0.4
	l1.3-0.9l-0.6-1l2.1-1.5l-0.8-4l4-3.1l0.8-1.6l-0.2-1.7l-3-1.5l-6.4,2.9l-1.7-1l-0.4-1.8l-1.7-1l0-1.6l-6.1-3.7l0.2-1.1l1.6-0.7
	l-0.7-1.2l-2-0.3l0.4,0.8l-2.2,0.1l0.9-1.3l-0.5-1l1.9-0.7l-4-0.8l-0.9-2l0.7-0.3l-1.4-1.6l-0.2-0.6l-3.6-3.2l-3-1l-4.9,0.2
	l-5.5-5.4l-0.2-1.4l-4.3-3L539.2,647.7L539.2,647.7z"/>
<path id="PH-SLE" class="st7" d="M596.7,770.5l3.1,3.3l-2,3.2l2,4.4l-0.9,3.3l2.6,3.2l1.8-0.7l1.3,1.7l0.7,5.3l-1,2.9l-2.5,0.9
	l-6.4-2.2l0.5,7.6l-0.8,0.8l2.5,2.1l3.5,0.4l2.3,6.4l2.6,3.5l-0.7,1.8l1.9,2.6l-0.4,1.4l-2.6,0.1l-0.6-2.5l-1.8-1.1l-2.7-5.5
	l-3.7-1.8l-1.3-3.7l0.4-4.8l-2.8-2.9l-4.2-11.1l-1.2-0.9l-2.9,0.5l1.3,8.7l-0.7,3l3.4,9.2l0.3,6.1l-6.7-5.6l-2.3-0.6l-1.1-2.3
	l-8.1-0.9l-1.5-1.8l0.2-2.5l0,0l1.2,0.5l5.2-5l3.8-0.8l-0.5-10.3l3.4-8.8l8.2,0L596.7,770.5L596.7,770.5z"/>
<path id="PH-BOH" class="st8" d="M501.5,842.5l2.5,1.3l-0.2,1.6l-5.1,3.9l-3.4,0.4l-0.4-2.2l-2.1-0.9L501.5,842.5L501.5,842.5z
	 M497,824.5l1.2,0.3l-2,1.8l-0.5-2.1L497,824.5L497,824.5z M500.5,822.9l2.8,0.3l-1.9,1.6l-2-1.6L500.5,822.9z M558.1,805.1l-2,3.1
	l1-0.2l0.1,1.9l-3.2-0.3l-0.6,2.7l-1.3,0l-0.6-1.9l0.9-1.5l-1,0.3l0-1.5l2,0.3l0.2-1.4l1.5,1.6l0.4-2.1l0.8-0.5L558.1,805.1
	L558.1,805.1z M534.4,803.6l3.6,2.5l0.1,1.8l2-2.9l1.7,1.7l0.2,1.8l1.6,0.3l4.7,3.4l1.8-1.5l3.1,2.6l1.1,3.3l-1.2,0.4l0.7,4.4
	l-1.3,0.5l2.8,0.8l-1.2,2.9l-3.3,1.7l6,3.3l-0.5,3.8l-1.4,1.6l-3.7,0.8l-1.7-2.9l-0.9,0.1l-2.7,2.9l-2.8,0.9l-0.7,4.2l-10.3,4
	l-5.2-0.9l-9.3,1.5l-14.9-3.5l-0.7-2.3l1.9-3.7l-0.5-0.5l-1.8-1.3l-3.7,0.2l-0.2-4l1.5-2.9l-1.4-1l0.1-1.2l2,0.6l-0.4,1l1.9-1.5
	l0.3-1.7l2.3-0.9l-0.4-1.1l1-1.3l0.8,1.2l5-3.3l4.8-0.8l1.2-1.6l1.4-5.9l2.7,0.1l3.9-6.4l9.1-0.1L534.4,803.6L534.4,803.6z
	 M526.7,803.3l0.6,0.5l-1,1.3l-1.4-0.7L526.7,803.3L526.7,803.3z M532.2,801.1l-1.8,2.1h-2.1l-0.6-0.7L532.2,801.1z M525.7,800.8
	l1.1,1.1l-2.5,0.5L525.7,800.8z"/>
<path id="PH-CEB" class="st8" d="M518.6,795.2l-1.3,3.7l-0.9-0.3l-0.6-0.9L518.6,795.2z M512.5,791.7l1.4,1.6l2.8-1.5l-4.5,5.5
	l-1.1-0.1l-1.8,1.2l-0.7-1l1.8-1.3l-0.3-0.6l-0.7-0.1l-1,0.6l0.5-2.2L512.5,791.7L512.5,791.7z M545.2,763.5l5.1,2.8l0.4,1.8
	l-5.2,2.1l-3-0.1l-1.2-1.2l-0.2,1.5l-5,2.8l-2.7-0.3l2.1-4l0.8-4.8l4.2,1.4l0.7,3l2-4.2L545.2,763.5L545.2,763.5z M554.3,756.3
	l-1.3,4.1l-3.3,2.2l-0.2-2.2l2.5-3L554.3,756.3L554.3,756.3z M517.8,722l-0.4,1.4l1,0.4l-2.4,3.6l-0.2,4.3l-3.8,5.5l1,0.2l0.1,1.4
	l3.2-0.2l0.2,5.8l-1,3.5l1.8,3.5l-1.7,3.2l-0.2,4.2l-1.8,1.9l2.1,12.9l-1.1-0.4l0.5,2.5l0.6-0.7l0.2,0.8l-0.3,4l-2.5,6.2l1.7,2.2
	l-3.4,2.8l-0.6,1.3l-5.9,2.9l-1.5,3l-7.1,1.7l-0.7,2.2l-5.1,5.1l-0.3,3.1l-2.9,0.1l-1.9,6.5l0.7,3.4l-1.3,2.8l0.1,2.6l-2.5,1.2l-1,3
	l-1.7,1l0.1,3.3l-2,2l0,2.6l-3.1,9.2l-8.3,10.9l-3.7,0.5l-0.3-6.2l3.4-21l2-2.3l0-3.8l1.5,0.1l0.8-2.7l-0.6-2.3l-2-0.8l0.2-3.1
	l1-0.7l0.5,2.2l1-0.6l0.9-5.5l2.4-0.9l0.2-1.3l4.9-5.2l0.7-3.1l4-5.1l-0.1-4.8l6.3-6.2l0.6-3.1l2.8-3.1l-0.7-3.4l2.9-4.6l-0.2-2
	l4.3-6.5l2.3-1l2.5-7.1l1-3.4l3.8-8.6l0-1.3l-0.8,0.6l-1.5-2.3l2.3-2.3l0.1-3.1l2.3,1.7l-1.6-7.6l3.4-3.2l0.6-3.1L517.8,722z
	 M493.7,720.4l1.5,1.2l1.3,5.5l2.9,3.2l-0.1,1.1l-6.3,1l0.8-2l-1.1,0l-2.1-4.7L493.7,720.4L493.7,720.4z"/>
<path id="PH-SIG" class="st9" d="M484.6,867.8l2.1,0.4l2,4.3l1.8,1l-2.2,2.4l3.3,3.3l-1.5,1.8l-2.9-0.4l-1.3,1.7l-2.5,0.6l-2.1-0.5
	l-7.8-6.8l1.3-2.3l2.2,0.8l4.3-0.9l2.4-1.8L484.6,867.8z"/>
<path id="PH-NER" class="st9" d="M412.7,859l2.5-5.9l6.5-6.5l18.5-23.6l2.1-7.4l6.8-11.3l6.3-7.6l-5.2-10.5l8.9-0.2l6.1,2.3l0,0
	l-0.3,7.7l-3.3,6.9l-0.3,4.1l-3.9,9.2l-3.3,3.7l-0.4,2.3l-1.9,1.4v3.7l-1.4,1.1l2.1,9.7l-0.4,5.4l-2.3-1.6l-1.3,1.9l1.2,2.2l2.5,0.3
	l0.5,1.4l-1,1.1l0.1-1.2l-1.1-0.5l-1.3,2.7l2.5,0.1l2.2,5l3.2,1.1l2.3,6.2l2.8,2.1l1,2.4l-2,8.1l-6,8.5l-3.7,1.4l-1.8,2.2l-1.1-0.6
	l-2.7-0.9l-4.3,2.1l-5.4-2.7l-4.6-11l-1-7.6l-5.1-2.5l-8.7-1.2L412.7,859L412.7,859z"/>
<path id="PH-NEC" class="st9" d="M454.9,742.4l3.6,0.4l1.5,0.9l3.7,2.7l6.6-0.3l4.4,2.5l1.7-1.3l1.6,1.3l-1.4,0.8l1.9,0.5l0.9,4.8
	l2.4-0.5l-0.7,1.9l0.9,1.8l-1.9,3.3l-1.1-0.8l0.3,1.5l-1.6,2.6l-1.5,8l-1.2,3.8l-1,0.4l0.4,1.2l-3,3.4l-4.7,2.5l-1.6,4.4l0,0
	l-6.1-2.3l-8.9,0.2l5.2,10.5l-6.3,7.6l-6.8,11.3l-2.1,7.4l-18.5,23.6l-6.5,6.5l-2.5,5.9l0,0l-5.5-5.3l-1.4-3.8l-2.8-1.6l-1.1-4.4
	l-1.6,0.3l1-2.9l-2-0.8l-1.7,0.9l-0.7-1l1.7-2l-1.8,0.6l-1.2-1.2l1.3-2.7l-0.8-3.3l0.9-1.9l-1.8-1.5l4.1-4.6l1.4-5.7l4-0.8l11.4,0.7
	l8.3-6.6l3.3,0.3l3.1-2.4l-2-9.6l0.1-5.3l1.7-5.4l-5-11.2l2.3-2.2l2,0.3l1.9-1.2l0.1-1.2l2.6-2.1l1.8-5.3l0.2-3.2l1.2-0.5l0.4-4.6
	l-1.3-1.1l-0.5-3.5l1-1.1l-0.3-1.9l6.3-2.1l1.6,1.3l4.9-4.8l2-0.2L454.9,742.4L454.9,742.4z"/>
<path id="PH-AKL" class="st10" d="M365.1,673.3l8.8,7.4l6,0.9l2.5,1.4l1.8-0.5l1.2,2l1.4-0.6l3.7,4.5l2.3-0.1l1.7-0.1l-0.6,2l2-1.1
	l2.5,4.3l5.6,4.6l-1,0.8l-4.9-4.9l-2,0.8l2.3,2l0.1,2.3l1.6,0.3l0.4-1.5l0.9,2.1l-1.3,0.1l0.6,1.7l2.1,0.1l1.1-3l3.1,1.2l2,0.9
	l-2,0.7l2.7,0.5l0,0l0,1.2l-4.7,4l-8.4,0.1l-1.8,3.3l-1.5-0.4l-1.4,4.1l-2.1,2.3l-2,1.6l-5.4,1.5l0,0l-1.3-2.2l0.6-3.2l-1.6-0.9
	l-0.2-3.1l-2.2-2.4l1.4-4.4l-1-1.8l0.7-2.8l-0.6-3.6l2.7-5.5l-1.2-2.9l-12.7-5.2l-3.9,0.5l-3.2,3.1l-3.3,1.3l0,0l2.7-3.9l0.3-6.2
	l4.4-1.3L365.1,673.3L365.1,673.3z M362.5,668.7l0.5,2.5l1.4,0.8l-0.5,1.1l-2.6-3.6L362.5,668.7L362.5,668.7z"/>
<path id="PH-ANT" class="st10" d="M356.8,686.3l3.3-1.3l3.2-3.1l3.9-0.5l12.7,5.2l1.2,2.9l-2.7,5.5l0.6,3.6l-0.7,2.8l1,1.8l-1.4,4.4
	l2.2,2.4l0.2,3.1l1.6,0.9l-0.6,3.2l1.3,2.2l0,0l0.1,7.2l0.6-0.4l0.4,3.5l1.7,2.4l0,0l5.9,8.2l-0.5,5.2l0.8,1.7l-2.1,0.5l-1.1,2.6
	l-1.3-0.2l-4.4,4.5l-1.9,5.8l-7.4,4.9l-2.9,4.9l-0.9,3.6l-0.8,5.9l0.2,1.4l1.2,0.5l0,0l-5,4.5l-3.6-3l0.2-4.3l3.2-3.4l1.5-8.6
	l-0.9-3.6l-3.1-3.5l2-3.4l2.5-8.9l5.1-7.5l-1.5-11.7l1.4-2.6l-0.1-2.8l-1.8-2.8l2.3-3.1l-0.4-9.2l1.6-0.8l0.8-1.7l-0.5-3l1.7-7.7
	l-0.2-4.4l-2.6-2.7l-1.4,0.8l-9.2-2.6l-2.4,0.8L356.8,686.3L356.8,686.3z M327.1,678.5l5.7,0.4l1.3,1.2l-1.1,1.4l-5.7-1.2l-1.6,0.6
	L327.1,678.5L327.1,678.5z M335.8,671.6l1.7,1.8l0.4,2.2l-2.2,1.1l-1-0.9l-0.2-3.4L335.8,671.6L335.8,671.6z M321.2,660l2.4,0.4
	l1.7,5.3l1.3,0.8l-2.8,3.5l-2.4-5.2l1.9-1.2l-2.7-1.3L321.2,660z"/>
<path id="PH-CAP" class="st10" d="M420.1,697.4l5.6,0.3l0.1,1l2.4-1.1l0.2,1.1l2,2.1l0.6,0.9l-0.7,1.6l0.8-0.4l0.8-0.4l3.8,2.1
	l-1.1,1l-0.5,0.3l-1.9,0.8l0.6,1.5l-2.1,1l2.5,2.3l0.6-0.9l0.8-1.3l0.3-2.3l1.2,0.5l0.5-0.3l3.4-0.3l7.8-4.5l0,0l-3.5,7l0,3.9
	l-2.5,1.2l-2.8-0.2l-3,1.7l0.8,4l-4.2,2l0,3l-1.1-0.3l-1.6,3.6l-5.1,0.7l0.1-2.8l-1.5-0.7l-8.1,1.2l-1.8-1.8l1.6-2.1l-1.1-0.2
	l-3,3.3l-1.2-0.7l0.1-1.3l-1.3,0.9l-0.9,2.6l-3.9,1.8l-3-1.1l-4.5,0.2l-5-2.6l-6,6.4l0,0l-1.7-2.4l-0.4-3.5l-0.6,0.4l-0.1-7.2l0,0
	l5.4-1.5l2-1.6l2.1-2.3l1.4-4.1l1.5,0.4l1.8-3.3l8.4-0.1l4.7-4l0-1.2l1,1.3l0,1.1l2.7,0l2.1-1.4l-1.6-0.7l1.1-2l0.7,2.4l0.8-0.1
	l1-0.3l-0.4-1.4l3.2-1.1l-0.6-1.3l-0.6-0.8L420.1,697.4L420.1,697.4z"/>
<path id="PH-GUI" class="st10" d="M419.4,781.4l1.6,1.6l-3.2,0.7l0.2-1.8L419.4,781.4z M416.1,760.8l3.9,2.8l0.6,1.7l0.4,5.6
	l-3.1,6.3l-0.2,2.3l-1.3,2.1l-1.4,0l0.1,1.5l-1.4,1.2l-3.4,0.4l-2.8,1.6l-2,0.1l-0.4-3.3l-2.5-2.2l0.6-1.9l2.9-0.7v-1.8l-0.9-3
	l3.8-4.5l-0.1-1.7l1.4,0.4l2.1-1.2l0.4-3.1L416.1,760.8L416.1,760.8z"/>
<path id="PH-ILI" class="st10" d="M451.3,731.2l0.5,0.9l-2.7,3.1l-0.6-2.7L451.3,731.2z M452.9,726.3l1.6,0.1l-1.3,2l-1.1-1.3
	L452.9,726.3z M452.7,719.6l2.1,1.4l-3.2,3.3l0.2-4.1L452.7,719.6z M459.5,708.6l1.3,1.1l-1.9,1.7l-0.6-2.4l0.4-0.8L459.5,708.6
	L459.5,708.6z M457.8,708.3l-2.1,0.3l-1.1-1.2l0.6-1.9l1.4-0.5l0.6,1L457.8,708.3L457.8,708.3z M455,702.7l-0.4,2.1l-2.6,1.5
	l0.7-2.4L455,702.7L455,702.7z M451.5,698.4l1,2.7l-1.8,4l-1.2-1.5l-0.5,0.9l-1.3-0.3l1.2,1.8l2,0.3l-0.9,1.1l1.8-0.8l0.9,1.3
	l-2.7,4l1.7,1.7l-0.7,2l-1.1,0.3l0.5,1.3l-2.5,1l0.7,2.4l-1.1,5.1l2.3,2.2l-0.3,2.5l-1.2,0.7l-3-2.3l0.4,1.3l-2.7,0l-1.5,5.5
	l-2.4,2.5l-0.2-0.8l-1.6,0.3l0.9,1.2l-0.8,1.2l-1.2,0.1l0.5-1.8l-1.4-0.7l-1.3,3.4l-2.5-0.8l-1.5,1l0,2l-1.5-0.8l-3.5,1.1l-1.6,3
	l2.2,3.8l-0.8,0.3l0.4,2.6l-1.8,0.7l0.3,1.7l-2.6,3l-4.1-1l-0.5,1.3l-3.9,0.3l-1.5,2.1l0.9,1.4l-1.4,2.9l-9-0.1l-13.3,2.2l-2.1,1.7
	l-2.7-0.3l-4.7,4L375,774l-1.3,3.6l-3.5,4.3l0,0l-1.2-0.5l-0.2-1.4l0.8-5.9l0.9-3.6l2.9-4.9l7.4-4.9l1.9-5.8l4.4-4.5l1.3,0.2
	l1.1-2.6l2.1-0.5l-0.8-1.7l0.5-5.2l-5.9-8.2l0,0l6-6.4l5,2.6l4.5-0.2l3,1.1l3.9-1.8l0.9-2.6l1.3-0.9l-0.1,1.3l1.2,0.7l3-3.3l1.1,0.2
	l-1.6,2.1l1.8,1.8l8.1-1.2l1.5,0.7l-0.1,2.8l5.1-0.7l1.6-3.6l1.1,0.3l0-3l4.2-2l-0.8-4l3-1.7l2.8,0.2l2.5-1.2l0-3.9l3.5-7l0,0
	L451.5,698.4L451.5,698.4z M466.6,698.7l-1.6,1.6l-1-0.8l0.6-1L466.6,698.7z M466.8,695.5l-0.8,2.3l-0.5-2L466.8,695.5z"/>
<path id="PH-ALB" class="st11" d="M522.7,576.8l5.4,1.8l1,2.7l-8.1-0.9l-3.4-1.5L522.7,576.8z M511.6,573.5l0.6,1.5l1.3-2l1.9,2.1
	l1.1-1.5l4,1.6l-2.4,0.5l0.4,1.1l-3.5,1.6l-2.2-0.7l-0.1-0.9l-3,0.3l-2.6-2.3l0.5-1.1l-1-0.6l4.5,0.5L511.6,573.5L511.6,573.5z
	 M502.7,568l5.5,2l-3.3,3.5l1.8,3.1l-1.9,1.1l-0.9,0.1l-0.2-2.3l-0.7-0.1l-1.5-1.4l1.7-3.1l-1.6-1.5L502.7,568L502.7,568z
	 M496.3,564l3,1l1.5,1.9l1.8,0l-1.2,1.9l-2.5-1.5L496.3,564L496.3,564z M484.6,556l1.4,1.8l3.8,1l5,11.6l4.9,2.5l1.3,1.6l2.5,2
	l-0.4,1.2l-4.4-1l-2,0.7l-1.5,4.4l0.2,1.8l2.1,2.3l-0.7,1.8l-1.8,0l1,1.1l-0.9,0.7l3.7,1.3l2.4-2.6l0.2-2l1.3,0.1l0.5-2l1.2-0.6
	l4.4,1.9l0,0l-2.6,5.8l-3.4,0l-6.5,4.1l-2.5-2.8l-4.6-0.2l-3,1.2l-4-1.5l-6.8,3.1l0,0l-2.1-2.7l-3.3-1.6l-6.2,3l-1.7-3.6l-1.1-0.1
	l1-2.1l-0.5-4.8l1.6-1.4l-0.4-1.5l1.7-0.7l-3.7-4.8l0,0l8.1-5.9l1.2,0.7l0-1.1l2.2-1.2l1.9-0.6l2.1,0.7l6.8-2.8l0.3-3.3l-3.1-4.8
	l0.8-1.1l3.4-0.3l0,0L484.6,556L484.6,556z"/>
<path id="PH-CAN" class="st11" d="M406.1,494l6.4,2.3l-1,0.8l1.7,1.1l0.8,0.3l1.2,0.6l-0.8-1l0.8-1.8l1.1,1.1l2,1.3l-1.8-4.1
	l1.4-0.5l2,0.4l0.6,2.1l2-1.2l2.9,1.3l-0.4,1.9l1.5,0.2l1.4-0.2l2.7,1.1l3.6,3.8l-0.1,0.4l0.1,1.6l1.7,0.2l3.7,5l1.9,0.9l0.7-0.1
	l1.4,1.1l0.4,2.3L443,515l-0.1,2.3l1.9,3.1l2,0.8l0.9,6.7l-1,1.5l-1.1-0.2L445,532l0,0l-8.5-6.9l-10.8-6.3l0,0l-25.3-10l-5.6,6.2
	l-4.7-0.2l-0.1-1.1l0,0l0.7-1.6l2.2-0.9l0.6-0.5l-0.1-1.3l-0.8-1.1l-0.3-3.2l1-0.9l0.2-1.2l2.4,0.8l-1.7-2.5l1.5-0.7l0.4-2.2
	l1.8,0.2l0.5-2.2l1,1.1l2.8-3l1.1,0.9l1-0.7l0.9-0.5L406.1,494L406.1,494z M436.7,487.2l2.5,2.3l-1.8-0.2l-2.2-1.9L436.7,487.2z
	 M437.2,482.9l0.7,0.1l-1,1l0.7,0.7l-1.3,0.3l0.3,1.1l-3.1,0.3L437.2,482.9L437.2,482.9z"/>
<path id="PH-CAS" class="st11" d="M500.3,521.7l1.4,0.4l-0.6,6l-1.8-4.1L500.3,521.7z M487.6,521.5l1.2,1.3l0.6-0.4l0.5,1.7
	l-3.8,2.7l-1.8-0.5l0.2-3.5l1.1,1.6l1.1-1.9l1.7,1.5L487.6,521.5L487.6,521.5z M465.6,512l1.3,2.1l-0.3,1.7l1.4,1l-1.6,0.2l-0.7,1.9
	l1.5,0.3l1.7-1.9l-0.4,2l1.1-0.2l0.5,1l-0.8,0.8l1.6,0.2l-0.6,3l1.6,1.4l1,0.6l0.9-1.1l-0.8-0.5l0.2-2.3l3.9,2.2l-0.9,2.1l2-1.3
	l0.3,1.2l1.6,0.4l0.1-1.8l2.1,1.2l0.6,0.2l1.4,1.6l3,0.8l1.5-0.8l1.2,1.2l2.5-0.4l-0.9-0.6l1.1-2.3l-0.7-1.6l1.7,1.7l0.9,2l1.3,2.2
	l1.6,0.3L497,531l2,0.3l3.2,2.7l1.5-1.1l2.3,2.2l3.1,0.1l0.5,3.1l1.5-0.1l0,3.5l-0.4-1.3l-2-0.7l-0.3,1.2l-4.3-1.4l-2.7,3l-2.5,0.7
	l-3.8-1.7l-5.5-0.8l-1.2,1.1l-7-2.2l0.7,1.4l1-0.5l-2.4,3.6l-1.1,4.1l0.8,1.3l0.5,0.2l-1.5,2.6l1.2,1.1l1.4-0.8l1.2,0.6l1.2,2.3l0,0
	l-3.4,0.3l-0.8,1.1l3.1,4.8l-0.3,3.3l-6.8,2.8l-2.1-0.7l-1.9,0.6l-2.2,1.2l0,1.1l-1.2-0.7l-8.1,5.9l0,0l-2.7-2.1l-2.1-4.2l-0.2-3.7
	l-1.3-2.8l-10.2-5.5l-0.9,0.5l-2.4-1.6l-1.9,0.1l-2-2.1l-4.5-2l-4-4.7l-2.5-0.8l1.9,0l2.7-3l-1.9-3.3l-4.6-3.1l-1.6-1.1l-1.7-2.2
	l-1.9,0.4l-1.5-1l0,1.5l-1.9-1l-1.2-1.4l1-0.9l-0.8-2.3l-4.5-1.7l0.6-1.5l-2.2,0.3l1-0.9l-1.5-1.2l0,0l17.7-4.9l0,0l10.8,6.3
	l8.5,6.9l0,0l-1,4.5l5.6,3.7l8-0.3l3.1-1.5l3.3-3.8l0.3-1.9l-3-5.2l3.5-3.2l0.6-2.4l-1.1,1.4l-0.9,1.7l-1.3,0.3l-2.5-1.6l0.4-1.1
	l-2.4-0.4l-0.4-2.3l2.7-1l-2.3-1.1l4-0.4l-2.3-3.1l1.5,0l3,2.8l-0.7-2.5l2.8-0.1l-1.3-1.7L465.6,512L465.6,512z M462.5,510.2l2,1.3
	l-0.7,1.6l-2-2.5L462.5,510.2L462.5,510.2z"/>
<path id="PH-CAT" class="st11" d="M537.6,522l1.5,1.8l-2.2,0.3l-1.3-2.9l1.2,0.5l-0.2,0.9l0.3-1.9L537.6,522z M528.4,512.4l4.7,6.2
	l1,5.5l2.1,0.7l-0.4,3l1-0.4l0.4-2.5l1.8-0.5l0.2,2.5l2,1l0.3,1.6l0.5-2.1l0.2,1.7l0.4-0.8l0.8,1.5l-1.1,0.5l1.6,1l-1.6,0.8l1.1,0
	l-0.4,1.6l1.2,1.3l-0.5,1l-1.8,0.2l1.2,2.1l-1.1,0.2l-0.7,2.5l2.3,3.9l-2.8,1.5l0-1.4l-0.9,0.2l-1.7,1.4l0.6,3.3l-1.8,2.9l1.4,0.6
	l-2-0.2l-0.2-2.5l-2-0.6l0.6-0.9l-5.8,3l-0.5,3.6l-2.7-1.1l-4.6-4.5l-4.4-0.7l1.2-1.1l-3-3.5l5.2-3.1l3-6.8l-0.6-6.6l1.5-3.2
	l-1.5-3.8l-0.2-1.9l1-0.9l-1-3.4l3.2,0.7L528.4,512.4L528.4,512.4z"/>
<path id="PH-MAS" class="st11" d="M450.4,678.9l0.6,0.7l-1.5,1.3l-0.3-1.4L450.4,678.9L450.4,678.9z M457.9,624l10.3,4.4l-2.9,0.2
	l1.5,4.1l-2.7,1.2l0.7,1.4l1,0.7l1-2.4l1.7,0.4l-1.3-2l0.5-1.1l2.2-1.1l2.9,0.5l6.6,5.1l1.4-0.9l1.1,3.7l2.9,2.1l-2.6,2.1l3.4-0.5
	l0.8,0.1l1.4,1.3l1.4-0.5l1.8,1.2l6.4,10.2l0.8-0.4l-0.9-1.9l1.4-1.3l1.6,0.6l2.3,3.1l1.3-2.1l1.6,1l1.7,4.2l9.7,13.7l-0.3,1.5
	l-2.6-4.5l-1.1-0.2l-0.4,1.7l1.5,2.7l0.9-0.1l3.3,7.3l-1.1,4.3l1.1,5.4l-1.5-0.4l-2.6-4.4l-6.8-5.9l-1,0.2l-3.2-2.7L503,676
	l-9.9-2.3l0.4-1.1l-1.2-0.7l1.4-1.8l1.4-0.2l-7.3-4.8l-0.6-1.4l-2.9-0.6l1-1.5l-5.6-8.5l-2.7-1l-5.2,1.7l-4.4,6.9l-2.3,1.1l-0.9,1.7
	l-0.7-0.4l-1.3,3.9l-10,8.6l-1.3-1.9l3.9-6.5l-0.4-1.4l1.1-1.5l0.9-5.4l1.6-0.4l3-1.8l-0.9-2.6l1.1-1.2l-1.6-2.4l-2.4,2.1l-0.9-1.5
	l1.3-0.2l-0.9-2.1l3.2-4.9l-0.5-3.2l1.1-0.7l1-2.5l-0.9-0.5l1-0.9l-2.8-1.3L457.9,624L457.9,624z M486.1,617.2l2.2,3.3l4,1.9
	l-0.9,0.6l0.5,0.3l1.6,0l0.7,2.1l0.1,1l0.9,2.4l0.2,0.5l1.3,2.7l0.3,5.9l1.3,0.5l-0.5,2.7l1.1,0.1l-0.9,2.4l-4.5-4.8l-3.1-4.5
	l0.1-1.4l-3.8-4.5l-1.7-4.7l-0.9,0.5l-1.5-2.3l0.2-1.6l0.7,1.5l0.8-0.9l0.9,0.7l-1.3-3L486.1,617.2L486.1,617.2z M440.4,582.6
	l1.2,1.6l2.4,0.2l10,16.5l4,0.3l2.7,1.5l0.9,5.4l7,9.3l-1.8-0.2l-1.8-1.9l-5.3-8.2l-4.6-0.7l-2.1-3.2l-2.3-0.6l0.6-1l-2.9-1.4
	l-1.3-2.9l-1,0.5l-1-3.1l-5.7-0.6l-1.5-2.4l-1.4,1l0-3l1-1.4l-2.3-2.2l2.9-1.2L440.4,582.6L440.4,582.6z"/>
<path id="PH-SOR" class="st11" d="M509.6,586.5l1.7-0.2l3.6,4.2l3.1,1.4l1.4,2.3l1.7-4.3l1.8-1.1l4,0.6l0.7,0.9l-0.1,1.4l-0.5,0.4
	l0.7,0.9l-1.8,1.1l-0.5-1.7l-0.7,0.6l-1.1,6.3l-1.9,1.8l0.7,1.3l1.5-0.3l0.6,6.4l-1.8,5.8l0.3,4.6l-3,2.6l1.1,3.1l-1.8,0.9l1,1.2
	l-1.3,2.2l-6.6-0.6l-3.8-4.1l-0.1-2l-1.3,0.7l-0.6-1.6l-2.5-1.2l-3.3-12.8l0.4-0.7l2-1.7l-0.4-1.1l5.5,2.3l1-2.3l2.7-0.3l0.7,1.2
	l1.6-1l1.8-3.9l-1.4-3.2l-4,1.3l-2-0.2l-1.4-1.6L505,596l-0.2,2.1l0,0.8l-1.6,1.2l-0.3,1.7l-1.3-0.5l-0.6,2.1l-0.9-1.1l-1.5,2.1
	l-2.4-1.8l-0.1,1.7l-2,1.4l-0.4-1.9l1.2-0.8l-0.8-1.1l-1.9,1l-0.1,0.4l-1,1l-1.5-3.3l0.7,0.4l0.3-0.9l-0.3-0.5l-2.5,1.9l1,0.6
	l-0.7,1.4l-4.6-2.5l-2.3-3l-1.4-0.3l-0.6,0.9l-3.5-3.8l0,0l6.8-3.1l4,1.5l3-1.2l4.6,0.2l2.5,2.8l6.5-4.1l3.4,0l2.6-5.8l0,0
	L509.6,586.5L509.6,586.5z"/>
<path id="PH-MAD" class="st12" d="M358.7,551.9l0.3,1.3l1.1-0.4l0.4,1.6l1.5,0.8l1-1.3l2.7,0.9l2.3,0.7l0.8-2l1.7,1.5l-0.7,1.2
	l1.8,0.1l0.7,2l-1,0.2l2.3,0.6l0.8-1l3,2.6l-0.7,2.2l-1.1-0.7l-0.1,0.9l3.6,3.8l-7.5,7l0.5,2.7l-1.8,3.1l-3.4-0.6l-2.3-3l-6.2-2.7
	l-3.3-4.5l0.3-4.3l-1-3.3l3.7-6.3l-0.6-0.7l0.8-0.7l-0.6-1.1L358.7,551.9L358.7,551.9z"/>
<path id="PH-MDC" class="st12" d="M296.6,651.2l1.6,2.8l-2.1-0.3l-0.4-1.4L296.6,651.2z M300.6,646.5l2.5,4.7l-0.5,3.2l1.3-0.6
	l1.5,2.5l-1.2,1l-2.4-1.6l-0.9-2.9l-2.7-0.9l0.4-4.8L300.6,646.5L300.6,646.5z M253.8,555.2l3.8,1.6l6-0.3l4.1,1.5l4-0.3l5.9,2.1
	l10.1-2.6l0,0l-0.6,6.5l-6.3,9.9l13.5,6.5l10.2,6.5l8.6,3.2l0.3,30.6l-1.1,18.7l0.8,14.1l0,0l-2.5-2.2l-3.7-0.4l-3.4,0l0.1-1.6
	l-1.4-1.7l1.1-0.8l1.5,1l-0.4-1.9l-1.1-3.3l-1.4-0.5l-1.2,1.2l-2.3-1l-8.4-10.8l-0.4-2.7l1.4-2.8l-0.7-2.4l-4.6-5.7l-0.6-2l-4.8-1.2
	l-0.5-6.6l-1.7-1.3l2.3-5l-1.3-1.9l-0.6-2.7l-0.1-0.8l-2.2-5.9l-6.1-9.8l-3.2-0.8l-2.7-2.2l-3.5,0.4l0.1-3.1l-1.4,0l-1.6-2l0.4-1.9
	l-1.5-4.2l0.5-1.7l-0.9-1.3l-1.9-0.9l-3.2,1.2l0.3,1.8l-1,0.8l-2.7-0.5l-2.6-2.9l-0.8-1.9l2-3.3l2.7-1.8L253.8,555.2L253.8,555.2z
	 M245.2,543.6l5.5,2.1l2.1-0.1l0.8,2.1l-2.6-0.4L245.2,543.6L245.2,543.6z M244.1,532.1l3.3,2.2l-0.2,1.3l-1.6,1.1l-3.7-2.4l1.6-0.5
	L244.1,532.1L244.1,532.1z M229.7,529.9l3.3,0.7l4.7,3.4l1.5-0.8l4.8,6.5l-1.9-0.1l-0.8,1.2l1.5,1.2l1.2-0.5l0.5,1.8l-1.3-0.1
	l-0.8,1.2l-1-2.4l-2.3-0.5l-1.4-1.8l-2.1-0.2l-5.4-3.6l-0.4-3.8l-1.3-1L229.7,529.9L229.7,529.9z M225.5,527.3l1.7,1.6l-0.8,0.9
	l-2.2-1.4L225.5,527.3L225.5,527.3z"/>
<path id="PH-MDR" class="st12" d="M293.8,559.5l6,4.7l2.4-0.8l1-0.2l2.4,0.6l3.3-0.5l1.3-1.5l4.7,6.1l0.2-0.8l2.7,1.5l5.5,7.9
	l2.5-0.2l2,1.1l0.1,6.2l1.9,0.7l2.9-1.2l3.5,2.4l0,2.3l-3.8,2.6l-1.3,2.7l0.9,5.9l-1.2,2.6l0.8,4.1l-1.3,5.5l5.3,7.8l-0.2,1l0.1,1.8
	l-1.5,2.7l-0.1,0.4l-1.5,3.2l-3.1,2.2l-1.8,0.1l0.5,3l-2.6,2.4l0.2,3.5l2.9,2.8l-5-0.2l1,5.6l-1-0.6l-1.1-0.3l-0.1-2.1l-1.5,0.1
	l-0.9,2.3l-4.1,0.7l-2.5,5.6l0,0l-0.8-14.1l1.1-18.7l-0.3-30.6l-8.6-3.2l-10.2-6.5l-13.5-6.5l6.3-9.9l0.6-6.5l0,0l1.6-1l2.1,0.7
	l0.8,0.1L293.8,559.5L293.8,559.5z"/>
<path id="PH-PLW" class="st12" d="M10.5,957.7l0.4,4.1l0,1.1l-0.2,1l0.8,6.2l-1.3,0.6l0.8,1.2l-1.3,2.8l-2.5,2.2l-0.1,0.4l-1,0.3
	l-1.4-0.8l0.5-2.6l-1.2-0.2L2,969.5l-1.5-0.1L0,967.8l1.2,0.5l1.6-1.5l-1.2-3.5l1.2-4.1l0.1,2.8l2.6-1.9L5,958.5
	C5,958.5,10.5,957.7,10.5,957.7z M7.3,953.6l1.6,0.9l0.9,2.4l-3.4,1l-0.5-1.5l-1.4-0.5L7.3,953.6L7.3,953.6z M15.4,950l3.5,0.1
	l1.2,1.8l-4.1,0.2l-1.2-1.6C14.8,950.5,15.4,950,15.4,950z M11.7,945l1.8,0.5l0.9,1.9l-3.1-0.1L11.7,945L11.7,945z M28.6,939.4
	l2.1,2.5l-0.4,5.9l-3.8,2.3l-2.2-2.2l0.4-6.9l0.8-1.4C25.4,939.5,28.6,939.4,28.6,939.4z M21.9,940.4l2-0.2l-0.1,1.9l-2.7,1.9
	l-3.2,0.5l-1-2.2l2.2-0.3l2.8-3.5L21.9,940.4z M162.2,773.1l-0.1,1.1l1-0.7l-1.6,1l-0.9,1.3l-1.6,0.1l1.2-1.6l-1.1-1.2L162.2,773.1
	L162.2,773.1z M210.5,768.4l2.4,2.2l0.5-1l2.6,2.7l5.7-0.1l1.5,2.6l-1.3,1.1l-0.6-1.4l-0.6,1.7l0.9,1.1l-2.6,0.9l-0.2-1.3l-1,2.3
	l-1.5-0.9l-0.4-2.2l-1.4-0.3l2.8,4.9l-0.8,0.7l-4.1-0.8l1.3,1.7l-5,1.5l-3.1-1.7l0.2-4.7l-1.1,0.7l0.1-2.5l1-0.9l2.1,1.4l0.8-2.8
	l2.2-2.1L210.5,768.4L210.5,768.4z M300.7,749.4l0.7,1l-1.4,1.3l1.5,1.5l-1.6,1.2l0.5,2.3l-3.1,0.7l-1.7-2.3l0.4-1.9l3-1.2l0.4-2.3
	L300.7,749.4L300.7,749.4z M171.6,740.9l1,0.5l-1.2,2.4l0.8,1.8l-0.6,0.8l-2.2-2.5l0.5-2.7l1.1,0.5L171.6,740.9L171.6,740.9z
	 M201.8,738.3l1.2,2.1l-1.8,0.1L201.8,738.3z M200.3,737.2l0.7,0.6l-1.6,2.6l-0.3-1.9L200.3,737.2z M192.8,735.2l0.4,0.9l2.6,0.2
	l-0.5,1.8l1.8,2.6l-0.7,2.2l-0.3-2.1l-1.4,1.3l-0.9-2.1l-2.7-0.7L192.8,735.2L192.8,735.2z M200.3,733.4l0.8,2.3l-1.5,1.3l0.5-1.4
	l-1.2-1.9L200.3,733.4L200.3,733.4z M294.2,729.8l0.5,1.4l-1.6,1.5l-1.5-0.1l-0.5-1.4L294.2,729.8z M194.3,728.4l1.7,0.4l-0.2,1.8
	l-1.4,0.8l-0.7-0.8l-0.1,1.5l-2.3,0.2l-0.5-2.6l2.4-0.1l0.2-1.3L194.3,728.4L194.3,728.4z M200.8,718.9l-1.3,4.3l-1.6-2.7
	L200.8,718.9L200.8,718.9z M185.1,711.3l1.9,0.7l0.4,6.1l1.9,0.8l1.2-1.4l1.1,3.6l-2.2,8.7l-2.7,3.1l2.6,4.7l1.7-1.1l-0.7,1.7l1.4,4
	l-0.6,0.8l-1.8-1.3l-2.5,0.4l-1.4,9.8l1.8,1l0.1,2.4l1.7,1.2l2.9-1.9l1.8,1.2l-0.1,1l-1.4-0.3l1.1,1l-1.3,1.1l1.3,1l-0.6,1.9l1,1.5
	l-2.2,4.5l3,0l1.8-2l1.6,1.3l-0.6,0.7l1.4,0.7l-3.3-0.2l1.2,1.8l-1,1l2.1,1l1.1,4.7l2.4,0.1l-0.8,1.1l1.1-0.3l0.6,1.8l-2.9,1.1
	l-3.2,3.7l-3.4,1.5l-1.1,3.7l-4.3,0.9l-3.9-1l-2.1,1.7l-4,0.5l-1.5,2.3l-2.1,0.2l-5.8,8.1l-1.8,9.1l-1.5,2.2l-16.2,4.7l-5.3,0.7
	l0.1-1.1l-3.5,1.3l-2.2,2.4l-3.6,0l-1.6,0.8l-0.7,6.5l2.4,3.2l-0.3,5.5l-2.8-0.7l0.5-1.7l-1-2.5l-0.7,1.3l-1.3-0.5l-0.5,1l0.3,3.8
	l2.5,0.3l0.1,0.6l0.4,1.4l1.9-0.5l-0.1,1.5l-1.8,1.2l-0.3,1l-3.8,5.1l-2,1.1l-1,3.4l-1.2,0l-4.1,6.1l-0.2,0.5l-1.9,1.9l0.2,2.2
	l-3.8,3.8l0,1.1l-1.6-0.6l-1.7,1.9l-0.8-0.3l-0.7,2.5l-1.8,0.2l-3.8,4.7l-3.6-0.3l-5.3,1.8l-0.9-0.9l-4.4,2.5l-1.8-0.8l-1.4,3.1
	l-0.2,3.7l-2.4,0.4l1.2,1.2l-0.3,1.2l-1.6,0.4l0.6,1l-0.8,0l-2.9,6.6l-1.1,0l0.2,1.8l-8.4,3.8l-3.4,4.3l-2.3,0.3l-2,3.8l-2.8,2
	l-3.6,0.1l-5,2.1l-4.2-1.2l-2.2,2.3l0.8,3.4l-3.4,7l-1,0.5l-2.2-2l-1.2,1.5l-0.5,0.5l-4.2,0l-0.3,1.4l-7.7,5l-1.9,2.9l-2.1,0.5
	l0.8,0.8l-0.8,1.2l-2,0.1l-0.2-2.7l2.7-4.5l0.2-6.7l1.6-1.3l-0.2-2l2-0.9l-0.8-2.2l1.3,0.5l1.7-4l2.8-1.3l0.7-1.8l-1.5,0.2l2.7-3.5
	l4.7-1l-0.4-2l2.7-1.9l0.8-3.2l1.2-0.4l3.3-5.4l1,0L45,893l2.6-0.3l2.8-2.8l0.6-3.5l2.5-2l1.6,0.1l0.3-1.2l0.7,1.9l3.3-0.3l0.9-4.1
	l1.5-1.4l-0.3-1.5l2.6-2.5l1.1,0.7l1.7-1.9l0.9,0.4l3.2-3.8l3.4,0.7l2.1-2.1l0.2,2.6l2.6,0.1l0.3-1.6l1.8-1l0.2-1.6l1.3,0.1l1.3-1.3
	l0-1.3l2.8-0.7l-0.8-2.3l0.8-1.7l4.2-1l0.9-4.5l2.9-1.6l4.4-5.2l2.2-1.3l0.8-5l1.2-0.6l1.3,0.9l2.3-1.3l1-3.1l6.6-4.1l4.2-6.2
	l2.7-1.9l0.7-1.6l-0.7-1.7l2.9-1.4l-0.1-1.9l1.4-1.1l-1.4-2.1l1.1,0.4l3.2-2.9l1.4,0.2l0.3-2.5l1.4-1l1.2-3.6l0.9,4.7l0.1,0.8l0,2.6
	l1.4,0.1l1.1-0.5l0.1-2.9l2.1-2.7l-2.3-0.8l-0.1-5.6l2.4,0.4l1.9-1.7l2.2,1l3.2-0.9l0.9-3.2l-1.1-0.9l1.8-0.4l-2.1-1.4l0.8-0.8
	l1.6,1.1l0.4-1.9l1.3,0.7l1.1-0.8l-0.7-0.7l0.9-1.6l1.5,0.3l-0.8-2.6l-2.9,2.2l-0.7-1.8l1.9-1.5l-0.4-1.2l1.9,0.2l0.9-0.9l2.8,2.1
	l0.9-1.6l-0.9-1l2,0.3l1-1.2l-1.3-0.7l-0.9-0.6l0.2-0.9l0.4-1.3l0.7,0.7l0.4-1.1l1.2,0l0.5,0.9l-1.2,1l1.4,1l-0.8,2.6l1.9,2.2
	l0.2-1.3l2.5-0.9l2.9-5.1l2.9-0.2l0.9-2.2L167,776l2.7,0.7l3.8-3.9l1.8-10.7l-2.7-2.9l-2.3,0.7l-0.9-4.9l-3.9-1.3l0.2-0.9l2.5,0.1
	l-0.3-0.9l0.2-1.1l1.1,0.1l-1.4-1.7l-1.9,0.2l1.3-2.1l-1.3-0.4l0.4-1.1l1.6,0.3l0.1,3l1-0.4l-0.6-1.2l1.1-1.1l1.4,0.9l-0.7,0.9
	l1.3,1l-1.2,1.3l1.5,0.1l-2.4,1.5l3.1,0l-1.8,1.7l2.1,1.3l0.4-1.3l1.1,2.7l0.9-1.2l0.9,0.4l-0.8,1.6l3,0.5l1.3,1.5l-0.5,1.3l1.4-0.8
	l1.1,3.5l2.3-0.4l-2.1-5.5l-0.1-2.3l1.3,0.2l0.2-1.1l-2.7-0.9l-0.2-1.1l-3,1l-0.6-1.1l-1.1,0.1v-1.7l-1.1,0.1l2-3.2l-0.9-0.8l-1.6,1
	l-1.3-0.7l0.2-0.7l-0.7-4l1.2-2l1.5,3l2.4-0.8l-3.3-2.4l1.2-1.3l-1.5,0l0.2-3.7l1.1,1.6l1-0.3l-0.5,1.1l1.8,2.2l3.2,0.5l-0.2-5.4
	l0.9-2.2l-1.2-0.5l-0.7,1l-0.3-2.6l1.5-3.1l-0.5-7.5l1.1-0.4l0.4-2.1l1.4,1l1.6-2.3L185.1,711.3L185.1,711.3z M209.5,704.2l3.5,0.7
	l0.6,1.3l-0.1,3l-2.7,5.4l-0.9,0.2l-1.3-1.8l1.7-1l-0.1-1.1l-1.3,0.9l-1.4-0.7l-0.9,2.3l-1.2-2l-2.2-0.8l0.5-1.5l-1.6-0.8l1.2-1.1
	l-0.1,1l3.1,2.1l-0.2-1.5l1.4,0l-1.6-1.4l1-0.2l0-1.1l1.8,3l0.9-0.2l-0.4-1.3l1.9,1.1l-0.8-1.9l1.7-0.2L209.5,704.2L209.5,704.2z
	 M233.4,686.1l2.4,0.1l0.2,1.3l-2.9-0.4L233.4,686.1z M235.8,684.8l1.3,0.6l0.2,1.8l-2.2-2.3L235.8,684.8L235.8,684.8z M216.2,670.4
	l1.5,1.5l3.5,0.7l-2.2,0.4l0.8,2l-0.8,0.3l1.3,0.4l-0.1-1.7l1.2,0.7l1.1-1.2l2.2,0.3l0.3,1.2l-2.9,1.3l2.6,0.3l1.3,2.2l0.5-0.9
	l1.9,1l-3.9,1.4l2.2,0.2l-1.6,1.1l0,1.4l0.9-0.6l2.2,1.9l-2.8,2.3l1.7,0.1l-0.6,2.8l-5,3.8l-0.8,0.1l-0.9,0.5l-1-0.2l0.7-0.8
	l-0.9-0.4l-0.1-4l1.1-0.8l3.6-3.3l-1.3,0.2l-0.9-0.4l-0.7-0.7l-0.1,2.7l-2.4,0.3l-1.7-2.4l-1-2.8l1.5-1l-3.3-3.8l0.1-2.4l-1.8-1.4
	l0.5-0.6l2.7,2.3l0.2-1.5l-1.4-0.7l-0.1-1.3L216.2,670.4L216.2,670.4z M241,669.8l1.7,1.1l0.4,2.5l-2.1,2.1l2.9,0.1l0.4,1.6l-0.1,1
	l-2.6,1.1l-0.7,0.6l-4.1-6.6L241,669.8L241,669.8z M215.5,644.3l2.1,0.7l-0.2,1.5l1.1,1.1l-0.7,0.9l6.1,1.2l2.4,2l1.1,2.8l2.7-0.8
	l-0.1,1.8l4.7,4.1l1.7,0.2l0.1-1.5l1.8,0.4l-0.6-2.1l1-2.7l-1.1-1.7l1-0.5l0.4,2.1l1.4-0.1l0.2,5l0.9,0.5l1.1-1.4l0.8,2.2l1.1-0.3
	l0.4,1.5l1.8,0.5l0.6,2.7l-1.2,1.3l1.1,1.8l-0.3,1.5l-1.3-0.6l-1.4,1.4l-3.4-1.8l-2,1.8l-3.4-1.9l-0.6-1.5l-1,0.6l-1.8-0.8l-0.6,1
	l1,1.2l-0.8,0.9l-0.5,0.9l-1.4,1.4l-1.4-1.9l0.6-0.9l-2.4-1.5l-0.5,1.7l-1.9,0.5l-0.5-1.3l-2.6-0.2l-0.4-1.1l-0.3-3l-1.2,0.6
	l-1.1-1.3l-0.3-1l-0.1-3.6l-2.2-2l-0.3-2.9l-1.1-0.1l-2,4.1l-0.3-2.1l1.9-3.5l-1.2-0.8l0-1.3l0.6-1.2l0.9-1.5l-1.1-1.5L215.5,644.3
	L215.5,644.3z"/>
<path id="PH-ROM" class="st12" d="M363.5,661.4l1.8,2.3l-0.5,2.6l-3.2-2.3l0.3-1.6L363.5,661.4z M407.8,631.1l7.9,1.6l3.2,6.1
	l-1.2,5.4l-3.5,3.4l0,1.2l-1.8-2.1l-3.5-1.2l-1.5-3.6l-6.6-2.7l-1.8-2.7l0.3-1.7l2.4-2.3L407.8,631.1L407.8,631.1z M388.8,622.2
	l0.9,0.5l0.7,4.4l1.5,1.4l0.1,2.6l-1.9,2.1l-2.2-0.9l-1.6-3l0.9-0.9l-1.3-2.2l1.7-0.3L388.8,622.2L388.8,622.2z M376.6,618.6
	l2.8,1.1l0.6,2.1l-2.4-0.2l-0.5,1.2l1.3,2.7l0,3.2l-2,3l-1.7,13.8l-3.4,6.3l0.2,2.7l0.9-0.4l1,1.3l-0.7,0.7l-1-0.7l-1.6,1.8
	l-0.7,4.3l-2.3-3.2l0.5-1.4l-1.8,0.3l-0.6-2.4l0.7-3.7l0.5,3l1,0.6l2.1-3.3l-2.7-2.2l-1,0.5v-1.4l-1.3-0.1l-0.4-1.5l-1.2,0.8
	l-0.4-2.3l1.2-1.2l-0.8-0.8l1-3.5l3.3-1.2l1.3-2.6l0.7-3.7l-1.7-5.7l0.7-2l2.8-1.8l2.6-0.1l3.1-2.5L376.6,618.6L376.6,618.6z
	 M374.4,606.5l-1.8,4l-2.2-0.2l0-1.2L374.4,606.5z M346.7,598.2l2.3,1.5l-1.5,2.5l-2.6-2.5L346.7,598.2z M374.1,597.2l1.3,0.4
	l-0.7,2.9l-2.3,0.9L372,599l-1.4-1L374.1,597.2L374.1,597.2z"/>
<path id="PH-BTG" class="st13" d="M301.7,551.7l1,2.9l-1.4,0.6l-2.8-3.4l1.4,0.6L301.7,551.7z M283.2,543.1l2.1,1.8l5,0.5l1.4,1.4
	l-3,1.1l-2.3-0.7l-2.3-1.2L283.2,543.1L283.2,543.1z M266.2,502.6l1.9,0.7l0,0l4.4,1.4l-0.7,1.8l2.5,2.7l4.3,0.2l5.3,3.7l0.5,2.1
	l2.9-1.8l1.1,0.6l4.1-1.1l6.8-3.9l-0.6-0.7l0,0l4.7-0.2l6.3,1.8l1.6,7.8l1.9,2.9l1.3-0.2l0,2l0,0l0.3,1.9l-1.5-0.1l-0.5,1.2l2.5,3.5
	l7,0.5l1.1,1.5l5.2,2.2l0,0l-1.8,4.4l1.2,3.1l-0.5,1.8l1.2-0.3l0.7,1.2l-3.4,2.2l-2.8-1l-7.1,5.3l-1.8,0l-2-2.3l-2.2,0l-1.4-1.3
	l-7.6,1.9l-3.1-1.1l1.2-2.4l0.6-4.1l-0.7-1.2l-1.1-2.1l-2.6-1.3l-2.7,0.7l-5.2,6.7l-1.4-2.8l3.9-3.2l-1.9-4.5l1-0.6l-0.2-3.5
	l-2.2-1.8l-6.6-2l-3.5-0.6l-2.5,1.1l-0.7,2.1l1.8,2.6l-0.3,1.2l-4.7-1.4l-0.1,2.3l1.8,3.1l-1.4,1.5l-2.6-3.2l0.7-0.9l-1-0.9l0.1-8.8
	l-1.2-1.6l2-0.2l-1.2-4.2l0.7-1.7l-0.3-4.6l-3.8-1.6l1.5-0.5l1.7-0.1l-2.7-1.9l2.9-0.5l-2.2-1.2L266.2,502.6L266.2,502.6z"/>
<path id="PH-CAV" class="st13" d="M289.2,482.4l-0.6,1.1l-0.3,0.5l-0.7,2l1.2-0.6l0.6,0.7l0.3-1l3.7-1l0,0l-0.1,2.1l3.2,4.9l0,2.3
	l0,0l-0.3,2.9l4.5-1.3l-2.6,6.1l1.3,0.4l-1.4,2.7l1,0.3l-0.3,3.6l0,0l0.6,0.7l-6.8,3.9l-4.1,1.1l-1.1-0.6l-2.9,1.8l-0.5-2.1
	l-5.3-3.7l-4.3-0.2l-2.5-2.7l0.7-1.8l-4.4-1.4l0,0l0.1-3.4l2.4-1.5l2.8,0.4l1.5-1.1l1.2-1.4l2.8-1.4l7.3-7.4l1.7-4.6L289.2,482.4
	L289.2,482.4z"/>
<path id="PH-LAG" class="st13" d="M329.6,476.7l6.5,12.5l1.1-0.7l1.6,1.6l1.9,0.3l0.6,9.9l-4.8,6.8l-1.2-0.1l-1.9,1.9l-2.2,5.4
	l-4.5,0.7l-7.4,5.9l-5,1.6l0,0l0-2l-1.3,0.2l-1.9-2.9l-1.6-7.8l-6.3-1.8l-4.7,0.2l0,0l0.3-3.6l-1-0.3l1.4-2.7l-1.3-0.4l2.6-6.1
	l-4.5,1.3l0.3-2.9l0,0l3.1-2.1l0.4-8.7l3.2-2.7l0,0l2.2-0.2l2,1.5l3.8,7.6l0.2-4.7l1.1,0l1.3-3.3l1.9,0.3l0.2,2l1.6,0.1l1.7,1.7
	l0.9,3.8l-2.5,6.3l0.2,2.8l5.8-4.1l-1.5-1.7l0.5-2.3l-1.1-4.4l1.1-4.6l3.1-3L329.6,476.7L329.6,476.7z M314.3,493.9l-1.2-0.2
	l-1.2-5.6l-0.5,5.3l1.9,4.5l-0.1-2.8l1.3-0.3L314.3,493.9L314.3,493.9z M314.4,481.7L314.4,481.7l-0.2,0.2L314.4,481.7z
	 M314.7,481.8L314.7,481.8l-0.1,0.1L314.7,481.8z M314.3,481.2L314.3,481.2L314.3,481.2L314.3,481.2L314.3,481.2L314.3,481.2z"/>
<path id="PH-QUE" class="st13" d="M350.5,524l2.4,0.3l-0.3,2l1.2,1l-0.8,1.4l-0.8,0l-1.9-0.3l-1-0.7l-0.1-1.9L350.5,524z
	 M365.6,504.6l11.8,8.6l4.5,5.9l-2.4,0.5l-7.4-4.6l-1.4-2l-3.8-1.6l-5.3-6.2l1.2-3.2L365.6,504.6z M355.6,497.1l1.8,0.3l-2.4,3.8
	l-1.2-3.3L355.6,497.1z M397.9,465.2l2.1,2.1l-1,1l-8.5,0.8l2.1-2.6L397.9,465.2L397.9,465.2z M377.8,457.7l3.6-1.2l1.1,1.1
	l-0.5,1.7l3.1,1.6l1.7-0.3l0,4.8l-1.1,0.5l-1-2.3l-8.9-4.1l-1-2.8l1.8,0.8L377.8,457.7L377.8,457.7z M369.9,454l0.2,0.8l2.6,0.1
	l1.6,2l-1.6-1l-1.4,1.1l-1.4-0.4l-0.9-2.1L369.9,454L369.9,454z M364.5,440.6l1.8,0.6l-0.3,0.9l1.6-0.6l2,1.1l-0.7,1.7l2.9,0.1
	l0.5,3.3l-0.2,0.8l-1.7-3l-1.5,0.3l-1.4,2.3l2-0.8l0.1,3.6l-3,1.5l-0.9-0.5l1,5l2,0.6l1,1.7l1,7.2l-2.5,3.6l-4.7,3l-1.7-1l-0.9-2.7
	l0.1-3.6l1,1.3l1.4-0.4l-2.1-6.8l-2.2-2.5l-3.2-9l-0.8-0.1l0.5,2.1l-0.7-0.6l-0.8,1l-0.6-1l1.3-4.9l1.2-0.5l0.1-2.4l1.4,0l0.7,1.3
	l4.8-2.6l1,1L364.5,440.6L364.5,440.6z M320.4,445.1l0.7-1.6l-0.7-1.9l4.1-6.2l0.1-2.2l-1.3-1.3l1.7-0.5l-0.2-1.6l1.3-1.1l0,0l2,1.4
	l1-0.5l1.5,1.7l1.8,9.5l4.4,6.5l1,5.8l2.3,2.8l-0.8,2l9.6,9.9l-2.4-0.5l-1.1,0l-3.7,2.6l-1.1-1.4l-1.1,2.5l4.1,19.1l4.9,5.2l0.1,4
	l2.2,2.1l-0.4,3l-1.9,2l0.4,1.1l2.8,3.3L351,510l13.2,10.7l11.1,4.9l6.6,0.6l3,1.5l0.9-3.5l-3.2-1.3l-1.2-2.6l8.5,2.8l0.5-1.1
	l-0.9-1.4l1.7-0.6l0.5-1.4l-2.4,0.2l-0.2-1.6l-6.9-4.1l-2-3.5l0.1-1.4l1.6,1.5l-0.4-1.8l2.4-2.1l1.3-0.3l0.9,1.3l0.3-4.9l1.7-0.2
	l0.3,0.8l-1.3,4.6l1,0.9l-0.4,2.8l1.3,0.3l1.8-1.3l-0.7,4.1l0,0l0.1,1.1l4.7,0.2l5.6-6.2l25.3,10l0,0l-17.7,4.9l0,0l-1.5-0.8
	l-0.3,2.8l-5.4-0.2l-2.3-2l4.9,7.8l2.8,2.4l-1,0.5l-0.1,2.9l1.1,2.8l-2.4,0l-0.8,1.5l1.6,3.6l-0.4,1.3l3.5,3.4l0,1.3l6.4,4.1l0.1,1
	l-1.3,0.1l-2.6-3.5l-1.3,0l6.2,8.6l1.9,5v7.8l1,0.5l0.9,3.3l-3.3,1.1l-4.3,3.5l-2.5-1.2l-4.3-4.8l1.4-2.8l-1-1.1l0.9-1.2l-0.5-2.8
	l-2-4.5l-5.5-5.7l-0.8-2.9l-5.1-2.7l0.5-1.2l-1.2-1l-2.3-0.1l-0.7,1.2l-1.4-0.5l1.2-0.9l-0.9-0.9l-4.2,0.3l-0.4-2.7l-3.8-6.1
	l-0.9-0.1v-1.9l-2.9-3l-1.9-0.4l-1.3,1.2l-2.2-1.6l0.2-0.8l-3.4,0.1l-0.6-2.6l-5.9-1.6l-1.4-2.5l-1.2,0.8l-1.5-1.3l-0.7,0.8
	l-1.2-1.7l0.5-2l-0.8-0.6l-1.6,0.7l-2.5-2.2l-3.9,0.5l-0.4,0.9l1.2,2l-6,1.1l-0.6,1.4l-1-1l-7.9,3.8l-2.7,2.4l0,0l-5.2-2.2l-1.1-1.5
	l-7-0.5l-2.5-3.5l0.5-1.2l1.5,0.1l-0.3-1.9l0,0l5-1.6l7.4-5.9l4.5-0.7l2.2-5.4l1.9-1.9l1.2,0.1l4.8-6.8l-0.6-9.9l-1.9-0.3l-1.6-1.6
	l-1.1,0.7l-6.5-12.5l0,0l-8.6-15.4l-0.4-8.4l0,0L320.4,445.1L320.4,445.1z"/>
<path id="PH-RIZ" class="st13" d="M313.1,495.1l0.1,2.8l-1.9-4.5l0.5-5.3l1.2,5.6l1.8,0.8L313.1,495.1L313.1,495.1z M314.6,481.8
	L314.6,481.8L314.6,481.8L314.6,481.8L314.6,481.8L314.6,481.8L314.6,481.8z M314.3,481.9L314.3,481.9L314.3,481.9l0.2-0.2l0,0
	L314.3,481.9L314.3,481.9z M314.2,481.2L314.2,481.2L314.2,481.2L314.2,481.2L314.2,481.2L314.2,481.2L314.2,481.2z M320.6,453
	l0.4,8.4l8.6,15.4l0,0l-3.8,1.3l-3.1,3l-1.1,4.6l1.1,4.4l-0.5,2.3l1.5,1.7l-5.8,4.1l-0.2-2.8l2.5-6.3l-0.9-3.8l-1.7-1.7l-1.6-0.1
	l-0.2-2l-1.9-0.3l-1.3,3.3l-1.1,0l-0.2,4.7l-3.8-7.6l-2-1.5l-2.2,0.2l0,0l-0.9-2.8l1.2-1.7l-0.6-2.7l1.9-0.6l0.3-1.7l-2-1.3l2-4.7
	l-1.2-0.1l0-1.4l0,0l4.6-3.3l0.4-1.7l5.5-1.1L320.6,453L320.6,453z"/>
<path id="PH-ZMB" class="st14" d="M214.9,384.2l1.8,0.9l2.6-1.2l0.7,1.4h2.3l2.8-4l4.1,2.6l4.6-1l2.7,7.3l4.9,8.2l0,0l0.7,1.4
	l-3,1.8l-2.6,5.2l-1.6,11l8.9,5.4l3.8,4.3l2.4,4.9l0,0l-0.9,2.4l0.6,2.3l2.8,2.1l1.3,2.6l-0.1,4l2.2,2.1l0.7,2.5l0,0l-1.8,3.6
	l-4.4-0.7l-1.3,3.2l-4,3.2l-0.5,0.4l0.2-1.2l-1.9-0.3l-0.3-1.9l-1.7-0.1l-1.4-2.3l-1.6,0.9l0.9,3.7l-2.6,5.6l-4.6-1.6l1.4-0.3
	l-1.1-1.3l-2.7-0.3l1.9-2.6l-2.2,0.6l0.4-3l-1,0l0.1-1.9l-1.4-1.3l1-9l-0.9-6.4l-3.1-10l0.3-2.4l-2-2.5l-1.7-2l0.1-1.6l-2.7-2.9
	l0.6-0.4l-2.3-0.7l0.1-1.3l-1.3-1l2-1.3l-1.1-1.7l0.3-1.6l1,1.2l1.8-0.1l0.2-1.4l1.6-0.8l-2.3-3.6l0.9-1.3l-1.5,0.1l0.1,1.2
	l-0.9-0.3l0.6-2.7l-1.5-2l1.6-1.7l0.6-3.7l-1.2-1l-1.2,0.4l-2.3-2.6l3-1.5L214.9,384.2L214.9,384.2z"/>
<path id="PH-TAR" class="st14" d="M267.4,382.3l3,12.7l3.1,3.3l4.1,1.1l-2.3,4.2l3.1,9.9l-1.6,2.7l-0.2,3.3l3.1,2.4l-0.7,2.9l0,0
	l-2,0.3l-0.2-1.3l-3.1,1.7l-3-1.1l-1.4,0.9l-4.7,0l-13.4,7.1l-1.3-0.2l0,0l-2.4-4.9l-3.8-4.3l-8.9-5.4l1.6-11l2.6-5.2l3-1.8
	l-0.7-1.4l0,0l5.1-2.4l-0.5-1.4l2.6-2.2l0.5-2.4l2.5-2.7l6.4,2.7l4.9-3.1l2.9-8.9L267.4,382.3z"/>
<path id="PH-BAN" class="st14" d="M256.4,450.2l2.7,1.4l0.4,3.2l1.6,2.1l1.9,1.2l1.9-0.5l0,0l0.3,1.2l-1.8,0l0.1,2l-0.8-0.1v4.8
	l2.6,5.6l-0.3,2.7l1.6,5.6l0.9,0.4l-0.3,4.1l-3.3,4.2l-5.4-0.9l0.8,2.2l-2.2-0.6l-1.7-2.4l-1.6,0.4l-0.1-0.9l-2.4-0.4l-1.1-4.9
	l1.1-0.9l-0.7-0.9l0.9-2.9l-1.9-2.9l-1.4,0.5l-1.2-1.3l-1.4,0.8l0-1l-0.8,0.4L241,468l0.4-3.2l1.8-0.1l-2.8-1.9l2.8-1.4l-1.8-0.6
	l0.7-1l2.1,0.1l0,0l4.6-3.6l1.3-3.2l4.4,0.7L256.4,450.2L256.4,450.2z"/>
<path id="PH-BUL" class="st14" d="M292.3,428.5l4.8-2.6l8.9-1.5l7.1,5.1l5.1,0.4l0,0l2.2,15.2l0,0l0.2,7.9l0,0l-6.3,3.8l-5.5,1.1
	l-0.4,1.7l-4.6,3.3l0,0l-2.9-0.3l-1-1.3l-1.1,0.3l-0.3,1.6l-2.4,0.6l0,0l-0.3,0.3l0,0l-1,2.4l-1.4,0.2l-0.3-1.4l-1.4-0.6l-0.9,0.4
	l1.6,3.2l-0.9,0.5l-1.3-1.6l-0.8,0.8l0,0l-1.4-1.6l-0.9,0.3l-3.3-2.4l0.1-1.9l-1.1-0.4l-0.5-0.5l-1.2,1.8l-3.2-0.1l-1.3-0.5l-4-0.5
	l-0.4-0.9l2.3-1.3l-0.3-1.4l3.2-5.2l-0.1-2.4l6.4-0.6l4.7-3.8l-0.2-2l1.5-0.3l0.2,1l1.3-3.1l2,0.1l0.2-3.3l1.2-1.7l-3.2-4l1-1.6
	L292.3,428.5L292.3,428.5z"/>
<path id="PH-NUE" class="st14" d="M286.8,361.7l10.6-1.5l10.8,2.7l1.6,13.8L316,387l0,0l6.9,21.6l-4.7,21.4l0,0l-5.1-0.4l-7.1-5.1
	l-8.9,1.5l-4.8,2.6l0,0l-4,0.8l-2.4,3.2l-1.5-3l-4.4,0l-1.1-4.7l0,0l0.7-2.9l-3.1-2.4l0.2-3.3l1.6-2.7l-3.1-9.9l2.3-4.2l-4.1-1.1
	l-3.1-3.3l-3-12.7l0,0l9.5-1.5l5.7,4.5l2.6-2.1l4.7-11.9L286.8,361.7z"/>
<path id="PH-AUR" class="st14" d="M387,330.6l-1.2,0.7l-1.1,3.7l-2.1,1.8l1.7,3.4l1.2-3l0.3,0.7l-1.4,4.9l-2.4,1.6l-0.9,2.4l1.1,1
	l3.1-1.7l-2.3,3.3l-0.1,2.1l-9.8,9.1l0.2,2.2l-3,3.1l-3.1,1.6l2.8-5.7l4.8-4.8l0.1-2.7l2.5-1.6l0.2-2.7l-2.7-0.2l-1.6,1.7l-0.5,1.9
	l1.1,2l-4.3,0.8l-6,4.1l-4.8,0.3l-6.6,4.5l-1.4-1.1l-1.3,0.6l-5.6,4.8l-1,2.6l-1.7,0.3l0,1.1l-5.2,4l-0.1,8.4l1.3,2.7l2-0.8l2.8,1
	l0.2,3.4l-2.1-0.2l0.1,1.7l0.1,1l0.2,1.7l-2.4,1.2l-3.9,6.6l-2.7,1.6l-1.3,8l-1.5,0.5l-1.6,3.5l-2-1.6l-1.4,1.5l-0.8,4l3.3,7.3l0,0
	l-1.3,1.1l0.2,1.6l-1.7,0.5l1.3,1.3l-0.1,2.2l-4.1,6.2l0.7,1.9l-0.7,1.6l0,0l-2.2-15.2l0,0l4.7-21.4L316,387l0,0l13.5-11l0,0
	l26.7-23.5l16.7-19.7l4.8-3.2l0,0l10.2,0.5l0,0L387,330.6L387,330.6z"/>
<path id="PH-PAM" class="st14" d="M249.9,432.3l1.3,0.2l13.4-7.1l4.7,0l1.4-0.9l3,1.1l3.1-1.7l0.2,1.3l2-0.3l0,0l1.1,4.7l4.4,0
	l1.5,3l2.4-3.2l4-0.8l0,0l0.1,3.2l-1,1.6l3.2,4l-1.2,1.7l-0.2,3.3l-2-0.1l-1.3,3.1l-0.2-1l-1.5,0.3l0.2,2l-4.7,3.8l-6.4,0.6l0.1,2.4
	l-3.2,5.2l0.3,1.4l-3.4,1.9l0,0l-0.6,0.5l-2.4-2.2l-2.4-1.2l0.5-0.9l-1.2-0.4l0,0l-1.9,0.5l-1.9-1.2l-1.6-2.1l-0.4-3.2l-2.7-1.4l0,0
	l-0.7-2.5l-2.2-2.1l0.1-4l-1.3-2.6l-2.8-2.1l-0.6-2.3L249.9,432.3L249.9,432.3z"/>
<path id="PH-BEN" class="st15" d="M279.2,299l5,4.7l0.8,2.6l1.7,0.8l0,0l1.4,3.6l0.5,13.9l0,0l-1.6,6.8l0.5,5.4l-3.3,8.5l-2.9-0.2
	l-3.4,6.1l0.7,3.1l0,0l-8.2,1l-10.4-3.7l0,0l-3.1-19.7l2-3.3l4.5-4.2l-1.2-0.8l2.8-3.9l0,0l2.9-5.4l1.7-12.5l2-1.1l5.2-0.2
	L279.2,299z"/>
<path id="PH-IFU" class="st15" d="M286.8,307.1l2.7,0l2.3-2.3l2.5-5.8l-0.9-2.9l0.6-2l3.4,0.3l2.4-1.3l3.6-0.2l8.6,0.6l9-4.6l6.4-1
	l8.4,0.7l0,0l2.4,12.9l-3.1,3.6l-6.3,1.9l-1.7-0.8l-2.1,2.7l-2.8,0.3l-0.9,1.7l-1.3-0.1l0.7,1l-0.8,1.3l0,0l-1.4,3.7l-1.9,0.7
	l0.4,2.1l-1.3-0.5l-3.7,1.6l0,0l-0.4,0.1l0,0l-23,3.8l0,0l-0.5-13.9L286.8,307.1z"/>
<path id="PH-MOU" class="st15" d="M335.5,272.8l0.3,15.8l0,0l-8.4-0.7l-6.4,1l-9,4.6l-8.6-0.6l-3.6,0.2l-2.4,1.3l-3.4-0.3l-0.6,2
	l0.9,2.9l-2.5,5.8l-2.3,2.3l-2.7,0l0,0l-1.7-0.8l-0.8-2.6l-5-4.7l0,0l0.8-2.8l-0.5-10.5l5.6-5.9l0,0l2.9-0.2l1.3-1.7l0-2.6l0,0
	l10.3,1l2.2,3.1l5.5,1.9l6.4-1.4l6.6-7.2l5-1.8L335.5,272.8z"/>
<path id="PH-KAL" class="st15" d="M327.7,241.6l-0.2,1.8l2.9-0.5l12.8,12.5l0,0l1.4,4.8l-5.1,3.7l-4,8.9l0,0l-10.1-1.9l-5,1.8
	l-6.6,7.2l-6.4,1.4l-5.5-1.9l-2.2-3.1l-10.3-1l0,0l5.8-12.2l0.3-6.3l8.1-5.3l0.7-2.2l-2-5.9l2.3-1.3l0,0l7.6,4.5l1.9-3.5l9.8,2.3
	l0.7-1.8L327.7,241.6z"/>
<path id="PH-ABR" class="st15" d="M290.3,219.7l4.3,2.9l1.7,7.3l4.1-0.3l2.4,1.8l1.7,10.7l0,0l-2.3,1.3l2,5.9l-0.7,2.2l-8.1,5.3
	l-0.3,6.3l-5.8,12.2l0,0l0,2.6l-1.3,1.7l-2.9,0.2l0,0l-4.3,0l-3.1,2.3l-4.5-0.2l-2-2.5l1-0.4l0.1-4.3l-5-4.2l-4.1,0.2l-1.4-3.8
	l2.9-5.5l0.5-3.5l-4.4-1.8l-3.1,1.4l-1.1-1.6l1.5-3.3l1.1-7.2l2.4-4.9l0,0l3.4-7.3l7.9-2.7l2.7-4.4l4-1.4l3.6-3.7l5.6,0.7
	L290.3,219.7z"/>
<path id="PH-APA" class="st15" d="M292.7,183.8l3.1-1.5l2.6-3l0.3-1.8l3-0.9l0.3,4.2l11.6,4.2l2.7,3.1l2.4,0.1l10.8,6.2l1.6,6.3
	l-2.1,13.4l-3.3,1.5l-6.6,15.6l-1.2,0.7l5,1.8l4,4.4l0.8,3.5l0,0l-3.2,1.9l-0.7,1.8l-9.8-2.3l-1.9,3.5l-7.6-4.5l0,0l-1.7-10.7
	l-2.4-1.8l-4.1,0.3l-1.7-7.3l-4.3-2.9l0,0l0.9-1.4l-0.3-7.9l2.9-5.1l-1.2-2.4l-1.2-12.9L292.7,183.8z"/>
<path id="PH-NUV" class="st7" d="M319.9,313.2l4.8,4.5l0.6,3.5l0,0l-2.1,14.4l5.2,1.8l-1,6.7l-10.5,4.4l2.1,18.2l10.6,9.3l0,0
	L316,387l0,0l-6.1-10.4l-1.6-13.8l-10.8-2.7l-10.6,1.5l0,0l-2.8-5l-5.3-2.3l0,0l-0.7-3.1l3.4-6.1l2.9,0.2l3.3-8.5l-0.5-5.4l1.6-6.8
	l0,0l23-3.8l0,0l0.4-0.1l0,0l3.7-1.6l1.3,0.5l-0.4-2.1l1.9-0.7L319.9,313.2z"/>
<path id="PH-QUI" class="st7" d="M325.2,321.2l10.8,0.9l14.4,18.2l23.7-10.9l3.6,0.3l0,0l-4.8,3.2l-16.7,19.6L329.5,376l0,0
	l-10.6-9.3l-2.1-18.2l10.5-4.4l1-6.7l-5.2-1.8L325.2,321.2z"/>
<path id="PH-ISA" class="st7" d="M382,252.4l0,3.2l4.4,7.1l-1,0.6l1.3,1.2l-0.6,1.7l1.4,0.8l1.4-0.6l0.1,1.7l1.7,0.6l0.9-0.8
	l2.3,0.6l1.2-1.4l1.6,1l1.1,0.5l2.6,5.3l-0.2,1.7l-0.7,2.1l-1.3,2.3l0.4,3.4l1.4,1.2l0.8,0.6l2.6-0.1l1.9-2l1.4,3.3l-1.3,4.6
	l-3.2,4.6l0.8,1.9l-1.5,3.6l0.7,1.2l-2.7,4.6l0.5,2.1l-1.3,0.8l-8.7,17.9l-1.9,2.2l0,0l-10.2-0.5l0,0l-3.6-0.3l-23.7,10.9
	l-14.4-18.2l-10.8-0.9l0,0l-0.6-3.5l-4.8-4.5l0,0l0.8-1.3l-0.7-1l1.3,0.1l0.9-1.7l2.8-0.3l2.1-2.7l1.7,0.8l6.3-1.9l3.1-3.6
	l-2.4-12.9l0,0l-0.3-15.8l0,0l4-8.9l5.1-3.7l-1.4-4.8l0,0l12-0.7l2.2-1.3L382,252.4L382,252.4L382,252.4L382,252.4z"/>
<path id="PH-CAG" class="st7" d="M377.9,173.5l1.7,0.2l-0.2,4.4l-2.8,1.7l0.8-3.5l-1.1-0.2l0.1-1.1L377.9,173.5L377.9,173.5z
	 M304.6,170l5.3,1.5l7.7,6.2l6.5,3.1l1.3,0.6l0.6,1.5l2.7,0.4l11.1,6.3l20.7,7.7l0.6,0.7l8-2.1l5.8-5.2l0.7-2l2.1,0.1l-0.4-3.2
	l1.6-6.4l1.4-1.1l5,0.4l1,5.2l4.7,4.4l1.8,6.4l-2.6,6.9l-2.9,3.7l-3.4,1.3l-3.6,5.3l0.2,1.3l1.2,0.3l-0.8,2.1l1.1,1.2l-0.9,5
	l0.5,0.6l0.3,3.2l-1.9,1.9l0.4,2.5l-1.4,0.8l0.5,1.4l-1.4,1.8l0.5,4.1l1.8,3.1l-0.9,1.2l0.8,1l-0.3,4.4l2,4.8l0,0l-24.6,1l-2.2,1.3
	l-12,0.7l0,0l-12.8-12.5l-2.9,0.5l0.2-1.8l0,0l-0.8-3.5l-4-4.4l-5-1.8l1.3-0.7l6.6-15.6l3.3-1.5l2.1-13.4l-1.6-6.3l-10.8-6.2
	l-2.4-0.1l-2.7-3.1l-11.6-4.2l-0.3-4.2l-3,0.9l-0.3,1.8l-2.6,3l-3.1,1.5l0,0l0.9-10.3l0,0l4.5-2.9l1.8,1l2.3-0.6l0.4-0.9L304.6,170
	L304.6,170z M325.9,148.7l4.6,1.7l0,0.7l-2.1,1.5l-7.7,1l-3.9-0.2l-1.2-1.1l0.5-2l2.1,0.5L325.9,148.7L325.9,148.7z M362.1,141.2
	l2.1,0.1l3.4,3.3l-0.2,1.4l-2.1,0.5l-0.5,2.4l-4.3,2.5l-1.2,3.4l-1.6,1.1l-1.3-0.7l-0.7-4.2l3-0.9l-1.3-2.6l1.5-2l-0.3-2
	L362.1,141.2L362.1,141.2z M311.4,128.4l2.2,5.1l0.1,7l-3.9-4.2l-0.1-3.1L311.4,128.4L311.4,128.4z M325.3,111.3l5.7,2l2.6-1.6
	l-0.2,5.1l1.5,3.7l-2.3,1.1l0.1,1.2l-7.9-3l-1-3.6l-3.2-2.1l2.4-0.6l0.8-1.9L325.3,111.3L325.3,111.3z M365.9,97.4l1.6,1.5l0.2,3.2
	l-2.6,2.8l-4.1-3l-0.8-2.1C360.3,100,365.9,97.4,365.9,97.4z"/>
<path id="PH-BTN" class="st7" d="M356.9,40.1l3.2,3.6l-2,3.8l-1.6-2.1L356.9,40.1z M368.4,29.7l2.3,1.9l-5.2,4l1.3,1.6l-0.5,1.9
	l-1.7,1.5l-2.5,0l0.8-4.9l2.9-2.8l-0.7-1.8C365,31.3,368.4,29.7,368.4,29.7z M358.2,3l1.4,1.9L358.6,7l0.6,1.9l-1.4,0.6l-0.8,2.9
	l-3.3,2l-1.4-2.5l2.4-3.1l1.6-5L358.2,3z"/>
<path id="PH-PAN" class="st16" d="M222.2,343.3l0.7,2l1.6,0.7l-1.7,2.8l1.4,2.7l-1.8,1.4l-2.1-3.5l-1.2,0.1l0.2-1.1l-1.1-1.1l-1,0.8
	l-0.4-1l1.9-0.8l-0.4-1l0.9-0.8l-0.2,1.6l1.1,0.6l0.2-3L222.2,343.3L222.2,343.3z M216.6,385.2l-1.8-0.9l0,0l-0.4-0.7l2.2-1.8
	l-3.7-8.7l-1.1-1.2l-0.2,0.9l-2.3,0.2l-0.6,2.5l-1.4-0.7l-0.9,1.3l-1.6-3.8l0.7-3.5l1.1-0.9l-1.3-1.9l0.5-4.4l1.4-2l-0.8-2.3
	l-1.3-0.5l2.2-5.2l-0.8-0.7l0.5-4.5l2.6-3.8l2.9,0l2-2.7l3,1.9l-0.7,9.6l1-0.6l2,1.1l0.5,0.3l1.2,0.5l-0.3,1.4l2.1,1l1.2,1.9
	l0.7-1.7l1,0.6l0.3,0.4l1.8,0v1.2l1.1-0.6l1.7,1.9l-0.4,0.8v0.7l-1.2,1.4l1.8,2.2l-1.1-0.1l-0.2,0.9l3.4,2.2l5.8,0.3l7.4-2.5
	l0.2,0.7l6.9-7.8l-0.6-3.5l0,0l6.1-0.2l1-1.9l0,0l10.4,3.7l8.2-1l0,0l5.3,2.3l2.8,4.9l0,0l3.1,9.6l-4.7,11.9l-2.6,2.1l-5.7-4.5
	l-9.5,1.5l0,0l-1.8-4.3l-2.9,8.9l-4.9,3.1l-6.4-2.7L249,390l-0.5,2.4l-2.6,2.2l0.5,1.4l-5.1,2.4l0,0l-4.9-8.2l-2.7-7.3l-4.6,1
	l-4.1-2.6l-2.8,4H220l-0.7-1.4L216.6,385.2L216.6,385.2z M218.1,337.4l2,2.5l0,1.8l-3.7-1.2l0.1-2.8L218.1,337.4z"/>
<path id="PH-LUN" class="st16" d="M252.7,300.1l3.1,1l1.5-0.6l0.9,1.1l2.2-1.4l-0.7,5.7l2.1,2.2l-0.9,1.4l1.5,0.2l-0.6,1l1.1,0.8
	l-1.3,4.1l3.5,4.3l0,0l-2.8,3.9l1.2,0.8l-4.5,4.2l-2,3.3l3.1,19.7l0,0l-1,1.9l-6.1,0.2l0,0l-1.1-3.3l-2.6-1.6l-1.2-0.7l-0.2-4.9
	l-1.6-3.3l0.1-0.4l0.4-5.6l-1.9-2.5l0.4-1.4l0.8-4l-3.1-3.5l2.2,0.5l0-2.4l2.2-3l0.3-3.7l-1.3-5.1l0.8-2.6l4.6-3.3L252.7,300.1z"/>
<path id="PH-ILS" class="st16" d="M255.2,225.4l6.4,1.4l-1.5,9.9l0.3,2.2l1.5,1.6l0,0l-2.4,4.9l-1.1,7.2l-1.5,3.3l1.1,1.6l3.1-1.4
	l4.4,1.8l-0.5,3.5l-2.9,5.5l1.4,3.8l4.1-0.2l5,4.2l-0.1,4.3l-1,0.4l2,2.5l4.5,0.2l3.1-2.3l4.3,0l0,0l-5.6,5.9l0.5,10.5l-0.8,2.8l0,0
	l-2.3,1.6l-5.2,0.2l-2,1.1l-1.7,12.5l-2.9,5.4l0,0l-3.5-4.3l1.3-4.1l-1.1-0.8l0.6-1l-1.5-0.2l0.9-1.4l-2.1-2.2l0.7-5.7l-2.2,1.4
	l-0.9-1.1l-1.5,0.6l-3.1-1l0,0l2.7-4.5l-0.7-7.5l-0.8-7.3l-1.7-2.6l2.3-5.7l-0.9-0.1l0.3-3.6l1.3-0.2l0.8-3.8l0.6-1.5l-1.2-2.9
	l-1.2-0.4l0.3-2.1l-0.9-1.4l0.1-0.8l-1.4-0.5l-1.2-0.4l0.2-1l-2.7-1.2l-0.5-2.1l2-7.2l0.4-1l4.3-3.8l-0.5-1.6l-1.7-0.2l1.4-1.3
	l-1.7-1.6l2-0.8l0.4-1.4l1.6-0.1l-1.3-3.1L255.2,225.4L255.2,225.4z"/>
<path id="PH-ILN" class="st16" d="M284.5,168.2l4.7,6.7l3,0.4l1.4-1.8l0,0l-0.9,10.3l0,0l-1.4,6.1l1.2,12.9l1.2,2.4l-2.9,5.1
	l0.3,7.8l-0.9,1.5l0,0l-1.3,2.1l-5.5-0.7l-3.6,3.7l-4,1.4l-2.7,4.4l-7.9,2.7l-3.4,7.3l0,0l-1.5-1.6l-0.3-2.2l1.5-9.9l-6.4-1.4l0,0
	l-1-1.1l2.6-2l0.6-2.5l1.8-1.6l-1.8-2.5l0.3-3.9l-0.6-0.4l3-3.6l0.5-3.9l0.8-0.5l-0.5-0.7l3.9-5.9l1.8-5.1l-0.4-5.1l-2.4-6.2
	l4.5-4.1l6.5,1.3l4.2-1.1l1.1-2.1l-0.4-3.9L284.5,168.2L284.5,168.2z"/>
<g>
	<path class="st17" d="M300.4,512.5c0.4,1,0.7,2,0.4,3.1c-0.1,0.3-0.2,0.5-0.3,0.8c0.4,0.4,1.8,0.1,2.4,1.6c0,0.6-0.3,1-0.8,1.3
		c-0.2,0.4-0.3,0.8-0.4,1.2c0,0.3,0,0.6-0.1,0.9c0,0.1-0.3,0.5-0.4,0.6c-0.8,0.3-1.8,0-2.4,0.7c-0.8,1.1-0.6,3.4-1.8,4.1
		c-0.3,0.2-0.7,0.3-1.1,0.4c-0.4,0.2-0.8,0.4-1.3,0.1l-0.1-0.3c0.6-0.7,0.2-1.8-0.4-2.3c-0.7-0.6-1.3-0.4-2-1.5
		c-0.2-1.5,1.1-2.1,0.7-3.1c-0.1-0.2-0.2-0.4-0.3-0.6c0-0.3,0.2-0.6,0.2-0.9c0.1-0.5-0.1-1-0.3-1.5l-0.3-0.2
		c-0.2-0.6,0.3-1.1,0.2-1.6c-0.2-0.6-0.8-0.9-0.4-1.8l0.3-0.2c0.2,0.1,0.6,0.1,0.8,0c0.2-0.3,0.5-0.5,0.7-0.8
		c0.5-0.1,1.5,0.7,2.1,0.8c0.3-0.1,0.7-0.3,0.9-0.6c0.2,0,0.5-0.2,0.7-0.2c0.5,0,1.1,0.1,1.6-0.1c0.2-0.1,0.4-0.2,0.7-0.2
		C299.9,512.2,300.3,512.4,300.4,512.5l0.2,0.4L300.4,512.5z"/>
	<path class="st17" d="M320.4,488.1c0,0.1,0.2,0.6,0.2,0.7c0,0.9-0.6,1.4-1.1,2.1c-0.2,0.3-0.4,0.7-0.5,1c-0.3,0.7-0.1,0.8-0.2,1.3
		c0,0.4-0.3,0.8-0.4,1.1c-0.2,0.6-0.3,1.8,0.1,2.3l0.3,0.1c0.2,0,0.4-0.2,0.5-0.3c0.4-0.4,0.8-1.1,1.3-1.4c0.1-0.1,0.2-0.1,0.3-0.2
		c0.4-0.3,0.7-0.6,1-0.9c0.2-0.2,0.4-0.3,0.5-0.4c0.9-0.3,1,0.4,1.9-0.7c0.2-0.2,0.4-0.4,0.5-0.7c0.4-0.8,0.7-2.9,1.6-3.2
		c0.3,0.1,0.6,0.1,0.9,0.2c0.4,0.1,0.7,0.3,1.1,0.5c0.8,0.4,1.6,0.8,1.7,1.8c0.1,0.5-0.1,1.2-0.1,1.8c0,0.6,0.2,1.5-0.4,1.9l-0.3,0
		c-0.5-0.3-0.5-1.1-1-1.4c-0.1-0.1-0.2-0.1-0.4-0.2c-0.4-0.2-0.6-0.4-1.1-0.5c-0.2,0.1-0.4,0.3-0.5,0.5c0,1,0.9,1.9,0.3,3
		c-0.2,0.3-0.8,0.2-1.1,0.2c-0.4,0.2-0.7,0.7-1.1,0.9c-0.5,0.4-1.4,0.6-1.8,1c-0.1,0.1-0.1,0.2-0.2,0.3c-0.2,0.2-0.4,0.2-0.5,0.4
		c-0.4,0.4-0.8,0.9-1.2,1.3c-0.4,0.3-1.1,0.7-1.3,1.1c-0.6,1-0.4,1.5-1.5,2.3c-0.1,0.1-0.3,0.3-0.5,0.3c-0.5,0.2-1.9,0.3-2.4,0.2
		c-0.5-0.1-1.1-0.5-1.6-0.5c-0.5,0-1.7,0.9-2.1,1.3c-0.3,0.1-0.4-0.1-0.7-0.2c-0.6-0.2-1.4-0.3-1.4-1.1c0.3-1.1,0.6-1.1,0.2-2.3
		c-0.1-0.3-0.1-0.4-0.3-0.6c-0.3-0.3-0.7-0.4-0.9-0.8c-0.4-0.6-0.3-1.3-0.8-1.8c-0.3-0.3-1-0.9-1.4-1.1c-0.2-0.1-0.5-0.2-0.7-0.3
		c-0.1,0-0.4-0.5-0.5-0.5c-0.2-0.5,0.2-1.1-0.4-1.9c-0.4-0.5-1.4-0.4-1.5-1.2c-0.3-0.2-0.5-0.6-0.8-0.8c-0.2-0.1-0.3-0.2-0.5-0.4
		l-0.9-1c-0.1-0.1-0.4-0.8-0.5-0.9c-0.1-0.3-0.1-0.8-0.2-1.2c-0.1-0.7-0.3-1.3-0.2-2c0.1-1.2,0.6-2.3,0.8-3.4c0.1-0.5-0.2-0.6-0.3-1
		c0-0.4,0.1-1.4,0.4-1.7c0.5-0.3,1.1-0.1,1.5-0.3c0.7-1.2,1-0.7,1.8-0.9c0.1,0,0.3-0.1,0.4-0.2c0.8-0.1,1.5,0.3,2.1,0.7
		c0.4,0.2,1.1,0.6,1.4,1c0.2,0.2,0.2,0.4,0.3,0.6c0.2,0.4,0.6,0.7,0.8,1.1c0.3,0.6,0.6,1.3,0.9,1.9c0.1,0.2,0.3,0.4,0.4,0.6
		c0.2,0.5,0.5,1.5,0.8,2c0,0,0.2,0.2,0.3,0.2l0.4-0.1c0.1-0.3,0-1.6-0.1-2c-0.2-0.6-0.4-0.8-0.1-1.5c0.4-0.3,0.9-0.2,1.3-0.6
		c1-1.1,0.1-3.5,3.1-2.7c0.4,0.3,0.4,1.2,0.7,1.6c1.8,0.3,1,0.2,1.8,1.3c0.3,0.1,0.6,0.3,0.9,0.5c0.2,0.1,0.5,0.3,0.7,0.5
		c0.7,1-0.1,3.1,0.5,3.8L320.4,488.1z"/>
	<g id="Lake_Islands_00000122707125767289586650000001363688473779699592_">
		<path class="st18" d="M297.2,516.1c0,0.3,0,0.6,0.1,0.8c0,0.1,0.1,0.2,0.1,0.3c0.2,0.4,0.2,1.1,0.2,1.6l-0.2,0.3l-0.4,0.1
			l-0.4-0.2c-0.7,0-1.1,1-1.5,1.4l-0.4,0.1l-0.3-0.1l-0.2-0.3c0.3-1.3-0.2-1.2-0.1-2c0-0.3,0.1-0.6,0.1-0.9
			c-0.3-0.4-0.5-0.7-0.6-1.2l0.2-0.2c0.2,0.1,0.4,0.3,0.4,0.5c0.6,0.4,0.8,0.1,1.3-0.2c0.3-0.1,0.7-0.2,1.1-0.3l0.4,0.2
			c0.1,0.2,0.2,0.3,0.2,0.5L297.2,516.1L297.2,516.1z"/>
		<path class="st18" d="M312.5,489.8c0.1,0.5-0.1,1.1,0.1,1.6c0.3,0.9,1.8,0.9,2.3,1.7l0,0.4c-0.2,0.5-0.8,0.7-1.3,0.5l-0.3,0.2
			l-0.1,0.4c0.1,0.2,0.2,0.4,0.3,0.6c0,0.1,0,0.3,0,0.4c-0.1,0.3-0.2,0.5-0.3,0.8c0,0.2,0.1,0.3,0,0.5l-0.1,0.2
			c-0.8-0.3-0.5-1.1-0.7-1.6c-0.2-0.7-0.7-1.2-0.9-1.9c-0.2-0.5-0.3-2.3-0.1-2.8c0.1-0.5,0.3-0.8,0.4-1.3c0-0.4,0.1-1.4,0.5-1.6
			c0.5,0.3,0.2,1.5,0.2,2L312.5,489.8z"/>
	</g>
</g>
<path id="PH-ISC" class="st19" d="M366.8,1053.7c-0.5,0-0.9,0.8-1.9,0.8c-0.8,0.6-1.1,1.4-0.9,2.4l0.4,0.3l0.6-0.2l0.3,0.2h0.5
	c0.2-0.1,0.9-1.1,1.1-1.3l-0.3-0.6l0.1-0.3l0.9-0.2l0.1-0.1l0-0.2L366.8,1053.7z M369.6,1054.3c-0.7,0-1.7,0.5-2.1,0.9
	c-0.7,2-2.1,2.1-3.6,3.1l-0.2,0.4c0.1,0.3,0.1,0.7,0,1l-0.9,0.6l-0.7-0.5l-0.1,0l0,0.8l-0.2,1.2v0.7h0.6l0.6,1.5l0.7-0.3l0.1,0.6
	c0,0-0.1,1.2-0.1,1.4s-0.7,2-0.6,2c0.1,0,0.7,0.1,0.7,0.1l1.1,0.3l0.1-0.2l6.2,0l-0.2-2.4l-0.5-1.4h-0.6l0.6-0.5c0,0,0-0.3,0-0.5
	c0-0.1,0.2-0.9,0.2-1s0.1-0.7,0.1-0.7l0.6-0.3l0.1-0.7l0.2-0.1v-0.7l-0.6-0.6l-0.5-0.7l-0.3,0.1l0.1-1.4h0.5l-0.5-0.9l0.3-0.3
	l-0.2-0.3l-0.2-0.1l0.2-0.6c0,0,0,0,0,0l-0.5-0.3C369.8,1054.3,369.7,1054.3,369.6,1054.3L369.6,1054.3z"/>
</svg>
